<svg fill="none" height="26" viewBox="0 0 30 26" width="30" xmlns="http://www.w3.org/2000/svg"><path d="m15.6928 7.73674c.3792-.37932.3792-.99649 0-1.37581v-.00006c-.3793-.37925-.9966-.37938-1.3759 0-.3794.37932-.3794.99662 0 1.37593.3801.38013.9956.38032 1.3759-.00006zm-2.4373-2.43721c-.1952.19518-.5116.19518-.7068 0-.1953-.19519-.1953-.51165 0-.70684 1.3543-1.35437 3.5579-1.35437 4.9123 0 .316.31596.0877.85329-.3534.85329-.128 0-.2559-.0488-.3535-.14639-.9645-.96456-2.534-.96463-3.4986-.00006zm-2.714-2.00711c-.1952-.19518-.1952-.51164 0-.70683 2.4669-2.466891 6.4595-2.467078 8.9266 0 .3159.31596.0877.85329-.3535.85329-.1279 0-.2558-.0488-.3534-.14639-2.0761-2.07615-5.4365-2.07633-7.5128 0-.1952.19512-.5117.19512-.7069-.00007zm16.3273 21.49048c-2.2135 1.0013-4.8242.3819-6.347-1.5158-.1728-.2153-.1383-.5299.077-.7027.2152-.1728.5298-.1383.7026.077 1.235 1.539 3.3549 2.0451 5.1554 1.2306 2.0551-.9296 3.0443-3.2366 2.3009-5.3662l-2.6317-7.5393c-.5645-1.61747-1.875-2.86969-3.5054-3.34979-.7969-.23467-1.6151-.43479-2.4317-.59487-.2709-.0531-.4475-.31571-.3944-.58662.0531-.27079.3157-.44754.5866-.39437.8469.16595 1.6954.3735 2.5219.61686 1.9386.57088 3.4964 2.05846 4.1668 3.97939l2.6316 7.5392c.9082 2.6014-.318 5.4691-2.8326 6.6066zm-19.39255-9.8096v-1.5277h-1.5277c-.27603 0-.49984-.2238-.49984-.4998s.22381-.4998.49984-.4998h1.5277v-1.5277c0-.2761.2238-.4999.49984-.4999.27603 0 .49983.2238.49983.4999v1.5277h1.52768c.2761 0 .4999.2238.4999.4998s-.2238.4998-.4999.4998h-1.52768v1.5277c0 .2761-.2238.4999-.49983.4999-.27604 0-.49984-.2238-.49984-.4999zm14.42205.9054c.4993 0 .9054-.4061.9054-.9053s-.4061-.9053-.9054-.9053c-.4992 0-.9053.4061-.9053.9053s.4061.9053.9053.9053zm-2.9328-2.9328c0 .4992.4061.9053.9053.9053s.9053-.4061.9053-.9053-.4061-.9054-.9053-.9054-.9053.4062-.9053.9054zm2.9328-1.1222c.4993 0 .9054-.4061.9054-.9054 0-.4992-.4061-.9053-.9054-.9053-.4992 0-.9053.4061-.9053.9053 0 .4993.4061.9054.9053.9054zm2.9329 1.1222c0-.4992-.4061-.9054-.9053-.9054s-.9054.4062-.9054.9054.4062.9053.9054.9053.9053-.4062.9053-.9053zm-14.1375 3.9874c-1.30913 0-2.37422 1.0651-2.37422 2.3743 0 .8543.45366 1.6043 1.13257 2.0226-.18082.3661-.69297 1.909-2.54606 2.6311-3.38447 1.3189-6.8899584-1.9149-5.65411-5.4555l2.63146-7.5388c.56526-1.61941 1.88502-2.87444 3.5303-3.35722.87609-.25698 1.77499-.47185 2.67176-.63854.2714-.05049.4505-.31134.4001-.58275-.0505-.27142-.3114-.45048-.58279-.40006-.92995.17288-1.86202.39568-2.77048.66216-1.95399.57331-3.52136 2.06377-4.19271 3.98701l-2.631458 7.5388c-1.501082 4.3004 2.752238 8.3565 6.960878 6.7164 2.26189-.8815 2.87066-2.7275 3.13446-3.2294 1.4286.1751 2.6645-.9448 2.6645-2.3558 0-1.3092-1.0651-2.3743-2.3742-2.3743zm0 3.7488c-.75793 0-1.37455-.6166-1.37455-1.3745 0-.758.61662-1.3746 1.37455-1.3746.758 0 1.3746.6166 1.3746 1.3746 0 .7579-.6166 1.3745-1.3746 1.3745zm10.9965-1.3745c0-1.3092-1.0651-2.3743-2.3743-2.3743-.9768 0-1.8176.5932-2.1815 1.4382-.9879-.3209-1.6807-.283-2.4663-.283-.276 0-.4998.2238-.4998.4999 0 .276.2238.4998.4998.4998.7481 0 1.3804-.0412 2.275.275.0297 1.2835 1.0823 2.3187 2.3728 2.3187 1.3092-.0001 2.3743-1.0651 2.3743-2.3743zm-2.3743 1.3745c-.7579 0-1.3745-.6166-1.3745-1.3745 0-.758.6166-1.3746 1.3745-1.3746.758 0 1.3746.6166 1.3746 1.3746 0 .7579-.6166 1.3745-1.3746 1.3745z" fill="#ff9800"/></svg>