<svg width="52" height="52" viewBox="0 0 52 52" fill="none" xmlns="http://www.w3.org/2000/svg">
<g opacity="0.15">
<path d="M26 52C11.663 52 0 40.337 0 26C0 11.663 11.663 0 26 0C40.337 0 52 11.663 52 26C52 40.337 40.337 52 26 52ZM26 3.25C13.455 3.25 3.25 13.455 3.25 26C3.25 38.545 13.455 48.75 26 48.75C38.545 48.75 48.75 38.545 48.75 26C48.75 13.455 38.545 3.25 26 3.25Z" fill="white"/>
<path d="M37.375 27.625H14.625C13.728 27.625 13 26.897 13 26C13 25.103 13.728 24.375 14.625 24.375H37.375C38.272 24.375 39 25.103 39 26C39 26.897 38.272 27.625 37.375 27.625Z" fill="white"/>
<path d="M26 39C25.103 39 24.375 38.272 24.375 37.375V14.625C24.375 13.728 25.103 13 26 13C26.897 13 27.625 13.728 27.625 14.625V37.375C27.625 38.272 26.897 39 26 39Z" fill="white"/>
</g>
</svg>
