<svg width="88" height="16" viewBox="0 0 88 16" fill="none" xmlns="http://www.w3.org/2000/svg">
<path d="M10.52 15L9.54 12.18H3.58L2.6 15H0.1L5.18 0.999999H7.94L13 15H10.52ZM4.34 10.02H8.78L6.56 3.7L4.34 10.02ZM15.7255 6.68C16.2721 5.44 17.2988 4.82 18.8055 4.82V7.16C17.9788 7.10667 17.2588 7.30667 16.6455 7.76C16.0321 8.2 15.7255 8.93333 15.7255 9.96V15H13.5655V5H15.7255V6.68ZM19.6014 15V0.4H21.7614V15H19.6014ZM25.1694 10.92C25.3294 11.68 25.696 12.2667 26.2694 12.68C26.8427 13.08 27.5427 13.28 28.3694 13.28C29.516 13.28 30.376 12.8667 30.9494 12.04L32.7294 13.08C31.7427 14.5333 30.2827 15.26 28.3494 15.26C26.7227 15.26 25.4094 14.7667 24.4094 13.78C23.4094 12.78 22.9094 11.52 22.9094 10C22.9094 8.50667 23.4027 7.26 24.3894 6.26C25.376 5.24667 26.6427 4.74 28.1894 4.74C29.656 4.74 30.856 5.25333 31.7894 6.28C32.736 7.30667 33.2094 8.55333 33.2094 10.02C33.2094 10.2467 33.1827 10.5467 33.1294 10.92H25.1694ZM25.1494 9.16H31.0294C30.8827 8.34667 30.5427 7.73333 30.0094 7.32C29.4894 6.90667 28.876 6.7 28.1694 6.7C27.3694 6.7 26.7027 6.92 26.1694 7.36C25.636 7.8 25.296 8.4 25.1494 9.16ZM43.15 15H40.57L36.47 10.38V15H34.31V0.999999H36.47V9.42L40.35 5H42.99L38.59 9.9L43.15 15ZM45.843 3.1C45.5763 3.36667 45.2563 3.5 44.883 3.5C44.5096 3.5 44.183 3.36667 43.903 3.1C43.6363 2.82 43.503 2.49333 43.503 2.12C43.503 1.74667 43.6363 1.42667 43.903 1.16C44.1696 0.879999 44.4963 0.739999 44.883 0.739999C45.2696 0.739999 45.5963 0.879999 45.863 1.16C46.1296 1.42667 46.263 1.74667 46.263 2.12C46.263 2.49333 46.123 2.82 45.843 3.1ZM43.803 15V5H45.963V15H43.803ZM52.9309 4.74C54.0776 4.74 55.0043 5.10667 55.7109 5.84C56.4176 6.57333 56.7709 7.58 56.7709 8.86V15H54.6109V9.08C54.6109 8.33333 54.4109 7.76 54.0109 7.36C53.6109 6.96 53.0643 6.76 52.3709 6.76C51.6109 6.76 50.9976 7 50.5309 7.48C50.0643 7.94667 49.8309 8.66667 49.8309 9.64V15H47.6709V5H49.8309V6.28C50.4843 5.25333 51.5176 4.74 52.9309 4.74ZM63.0167 15.26C61.5501 15.26 60.3034 14.7533 59.2767 13.74C58.2501 12.7267 57.7367 11.48 57.7367 10C57.7367 8.52 58.2501 7.27333 59.2767 6.26C60.3034 5.24667 61.5501 4.74 63.0167 4.74C64.4967 4.74 65.7434 5.24667 66.7567 6.26C67.7834 7.27333 68.2967 8.52 68.2967 10C68.2967 11.48 67.7834 12.7267 66.7567 13.74C65.7434 14.7533 64.4967 15.26 63.0167 15.26ZM60.7967 12.26C61.3967 12.86 62.1367 13.16 63.0167 13.16C63.8967 13.16 64.6367 12.86 65.2367 12.26C65.8367 11.66 66.1367 10.9067 66.1367 10C66.1367 9.09333 65.8367 8.34 65.2367 7.74C64.6367 7.14 63.8967 6.84 63.0167 6.84C62.1367 6.84 61.3967 7.14 60.7967 7.74C60.1967 8.34 59.8967 9.09333 59.8967 10C59.8967 10.9067 60.1967 11.66 60.7967 12.26ZM71.0091 14.8C70.7157 15.0933 70.3624 15.24 69.9491 15.24C69.5357 15.24 69.1824 15.0933 68.8891 14.8C68.5957 14.5067 68.4491 14.1533 68.4491 13.74C68.4491 13.3267 68.5891 12.9733 68.8691 12.68C69.1624 12.3867 69.5224 12.24 69.9491 12.24C70.3624 12.24 70.7157 12.3867 71.0091 12.68C71.3024 12.9733 71.4491 13.3267 71.4491 13.74C71.4491 14.1533 71.3024 14.5067 71.0091 14.8ZM77.3353 7.08H74.8553V11.88C74.8553 12.2933 74.9486 12.5933 75.1353 12.78C75.322 12.9533 75.5953 13.0533 75.9553 13.08C76.3286 13.0933 76.7886 13.0867 77.3353 13.06V15C75.682 15.2 74.4953 15.06 73.7753 14.58C73.0553 14.0867 72.6953 13.1867 72.6953 11.88V7.08H70.8553V5H72.6953V2.84L74.8553 2.2V5H77.3353V7.08ZM85.372 5H87.732L83.832 15H81.332L77.432 5H79.792L82.592 12.6L85.372 5Z" fill="white"/>
</svg>
