<svg fill="none" height="7" viewBox="0 0 11 7" width="11" xmlns="http://www.w3.org/2000/svg"><path d="m10.8242.794494-.3603-.362824c-.1134-.11331-.2643-.175733-.4256-.175733-.16111 0-.31216.062423-.42556.175733l-4.11028 4.11046-4.11502-4.115021c-.11322-.11331-.26427-.175644-.425424-.175644-.161156 0-.312295.062334-.425605.175644l-.36041.360588c-.2346681.234493-.2346681.616453 0 .850943l4.899419 4.91704c.11322.11322.26409.19299.42668.19299h.00188c.16124 0 .31212-.07986.42534-.19299l4.89488-4.90372c.1134-.11322.1756-.26865.1758-.4298 0-.16125-.0624-.314535-.1758-.427666z" fill="#bfc5e7"/></svg>