<svg width="10" height="6" viewBox="0 0 10 6" fill="none" xmlns="http://www.w3.org/2000/svg">
<path d="M9.84016 0.54037L9.5126 0.21053C9.40951 0.107521 9.27235 0.0507723 9.12577 0.0507723C8.97926 0.0507723 8.84194 0.107521 8.73885 0.21053L5.00224 3.94731L1.26131 0.206383C1.15838 0.103374 1.02107 0.0467072 0.87456 0.0467072C0.728055 0.0467072 0.590655 0.103374 0.487646 0.206383L0.160001 0.534191C-0.0533338 0.747363 -0.0533338 1.0946 0.160001 1.30777L4.61402 5.77781C4.71695 5.88074 4.8541 5.95326 5.00191 5.95326H5.00362C5.1502 5.95326 5.28736 5.88066 5.39029 5.77781L9.84016 1.31989C9.94325 1.21696 9.99984 1.07566 10 0.929153C10 0.782567 9.94325 0.643216 9.84016 0.54037Z" fill="#202020"/>
</svg>
