<svg fill="none" height="7" viewBox="0 0 9 7" width="9" xmlns="http://www.w3.org/2000/svg"><path d="m8.85614 1.41727-.2948-.30685c-.09278-.09584-.21622-.14863-.34815-.14863-.13186 0-.25544.05279-.34822.14863l-3.36296 3.4764-3.36683-3.48026c-.09263-.09583-.216221-.148552-.348076-.148552s-.255514.052722-.348222.148552l-.294881.30496c-.1920014.19832-.1920014.52137 0 .71969l4.008619 4.15857c.09263.09576.21607.16323.3491.16323h.00154c.13192 0 .25536-.06755.348-.16323l4.00488-4.1473c.09279-.09576.14371-.22722.14386-.36351 0-.13638-.05107-.26602-.14386-.3617z" fill="#5c70cf"/></svg>