<svg width="58" height="53" viewBox="0 0 58 53" fill="none" xmlns="http://www.w3.org/2000/svg">
<path d="M3.69745 24.9232L12.4492 33.3504C13.026 33.9072 13.8024 34.12 14.5288 33.9962C15.0259 33.9114 15.5032 33.6675 15.8774 33.2662L24.1241 24.4217L24.1375 24.4073L24.1233 24.3936L20.6226 21.0227L20.608 21.0087L20.5941 21.0235L15.8656 26.0962C15.7347 17.8328 21.5268 10.4813 29.7869 9.07356C38.9227 7.51657 47.6429 13.8072 49.2264 23.0981C50.8098 32.3889 44.6655 41.2129 35.5297 42.7699L35.51 42.7733L35.5134 42.793L36.3347 47.6124L36.3381 47.6321L36.3578 47.6287C48.1274 45.6229 56.0447 34.2511 54.0051 22.2836C51.9655 10.3161 40.7284 2.20886 28.9588 4.21473C18.6348 5.97424 11.2816 14.9387 11.005 25.1888L7.02386 21.3566L7.00922 21.3425L6.99536 21.3574L3.69669 24.8952L3.68327 24.9096L3.69745 24.9232Z" fill="white" stroke="#5C70CF" stroke-width="0.04"/>
</svg>
