<svg width="50" height="50" viewBox="0 0 50 50" fill="none" xmlns="http://www.w3.org/2000/svg">
<g opacity="0.14">
<path d="M47.5 15C48.8807 15 50 13.8807 50 12.5V2.5C50 1.11927 48.8807 0 47.5 0H2.5C1.11927 0 0 1.11927 0 2.5V12.5C0 13.8807 1.11927 15 2.5 15H5V17.5H2.5C1.11927 17.5 0 18.6193 0 20V30C0 31.3807 1.11927 32.5 2.5 32.5H5V35H2.5C1.11927 35 0 36.1193 0 37.5V47.5C0 48.8807 1.11927 50 2.5 50H47.5C48.8807 50 50 48.8807 50 47.5V37.5C50 36.1193 48.8807 35 47.5 35H45V32.5H47.5C48.8807 32.5 50 31.3807 50 30V20C50 18.6193 48.8807 17.5 47.5 17.5H45V15H47.5ZM47.5 36.6667C47.9602 36.6667 48.3333 37.0398 48.3333 37.5V47.5C48.3333 47.9602 47.9602 48.3333 47.5 48.3333H2.5C2.03979 48.3333 1.66667 47.9602 1.66667 47.5V37.5C1.66667 37.0398 2.03979 36.6667 2.5 36.6667H47.5ZM6.66667 35V32.5H8.33333V35H6.66667ZM10 35V32.5H40V35H10ZM41.6667 35V32.5H43.3333V35H41.6667ZM47.5 19.1667C47.9602 19.1667 48.3333 19.5398 48.3333 20V30C48.3333 30.4602 47.9602 30.8333 47.5 30.8333H2.5C2.03979 30.8333 1.66667 30.4602 1.66667 30V20C1.66667 19.5398 2.03979 19.1667 2.5 19.1667H47.5ZM6.66667 17.5V15H8.33333V17.5H6.66667ZM10 17.5V15H40V17.5H10ZM41.6667 17.5V15H43.3333V17.5H41.6667ZM2.5 13.3333C2.03979 13.3333 1.66667 12.9602 1.66667 12.5V2.5C1.66667 2.03979 2.03979 1.66667 2.5 1.66667H47.5C47.9602 1.66667 48.3333 2.03979 48.3333 2.5V12.5C48.3333 12.9602 47.9602 13.3333 47.5 13.3333H2.5Z" fill="white"/>
<path d="M26.6664 6.66685H9.84643C9.38623 5.36508 7.95779 4.6829 6.65612 5.14321C5.35445 5.60352 4.67216 7.03175 5.13237 8.33352C5.59258 9.63529 7.02102 10.3175 8.32268 9.85716C9.03466 9.6055 9.59477 9.0455 9.84643 8.33352H26.6664C27.1266 8.33352 27.4998 7.96039 27.4998 7.50019C27.4998 7.03998 27.1266 6.66685 26.6664 6.66685ZM7.49977 8.33352C7.03956 8.33352 6.66643 7.96039 6.66643 7.50019C6.66643 7.03998 7.03956 6.66685 7.49977 6.66685C7.95998 6.66685 8.3331 7.03998 8.3331 7.50019C8.3331 7.96039 7.95998 8.33352 7.49977 8.33352Z" fill="white"/>
<path d="M38.3332 3.3335H36.6666V5.00016H38.3332V3.3335Z" fill="white"/>
<path d="M41.6667 3.3335H40V5.00016H41.6667V3.3335Z" fill="white"/>
<path d="M45.0001 3.3335H43.3334V5.00016H45.0001V3.3335Z" fill="white"/>
<path d="M35.0001 3.3335H33.3334V5.00016H35.0001V3.3335Z" fill="white"/>
<path d="M31.6667 3.3335H30V5.00016H31.6667V3.3335Z" fill="white"/>
<path d="M38.3332 6.6665H36.6666V8.33317H38.3332V6.6665Z" fill="white"/>
<path d="M41.6667 6.6665H40V8.33317H41.6667V6.6665Z" fill="white"/>
<path d="M45.0001 6.6665H43.3334V8.33317H45.0001V6.6665Z" fill="white"/>
<path d="M35.0001 6.6665H33.3334V8.33317H35.0001V6.6665Z" fill="white"/>
<path d="M31.6667 6.6665H30V8.33317H31.6667V6.6665Z" fill="white"/>
<path d="M38.3332 10H36.6666V11.6667H38.3332V10Z" fill="white"/>
<path d="M41.6667 10H40V11.6667H41.6667V10Z" fill="white"/>
<path d="M45.0001 10H43.3334V11.6667H45.0001V10Z" fill="white"/>
<path d="M35.0001 10H33.3334V11.6667H35.0001V10Z" fill="white"/>
<path d="M31.6667 10H30V11.6667H31.6667V10Z" fill="white"/>
<path d="M26.6664 24.1669H9.84643C9.38623 22.8651 7.95779 22.1829 6.65612 22.6432C5.35445 23.1035 4.67216 24.5317 5.13237 25.8335C5.59258 27.1353 7.02102 27.8175 8.32268 27.3572C9.03466 27.1055 9.59466 26.5454 9.84633 25.8335H26.6664C27.1266 25.8335 27.4998 25.4604 27.4998 25.0002C27.4998 24.54 27.1266 24.1669 26.6664 24.1669ZM7.49977 25.8335C7.03956 25.8335 6.66643 25.4604 6.66643 25.0002C6.66643 24.54 7.03956 24.1669 7.49977 24.1669C7.95998 24.1669 8.3331 24.54 8.3331 25.0002C8.3331 25.4604 7.95998 25.8335 7.49977 25.8335Z" fill="white"/>
<path d="M38.3332 20.8335H36.6666V22.5002H38.3332V20.8335Z" fill="white"/>
<path d="M41.6667 20.8335H40V22.5002H41.6667V20.8335Z" fill="white"/>
<path d="M45.0001 20.8335H43.3334V22.5002H45.0001V20.8335Z" fill="white"/>
<path d="M35.0001 20.8335H33.3334V22.5002H35.0001V20.8335Z" fill="white"/>
<path d="M31.6667 20.8335H30V22.5002H31.6667V20.8335Z" fill="white"/>
<path d="M38.3332 24.1665H36.6666V25.8332H38.3332V24.1665Z" fill="white"/>
<path d="M41.6667 24.1665H40V25.8332H41.6667V24.1665Z" fill="white"/>
<path d="M45.0001 24.1665H43.3334V25.8332H45.0001V24.1665Z" fill="white"/>
<path d="M35.0001 24.1665H33.3334V25.8332H35.0001V24.1665Z" fill="white"/>
<path d="M31.6667 24.1665H30V25.8332H31.6667V24.1665Z" fill="white"/>
<path d="M38.3332 27.5H36.6666V29.1667H38.3332V27.5Z" fill="white"/>
<path d="M41.6667 27.5H40V29.1667H41.6667V27.5Z" fill="white"/>
<path d="M45.0001 27.5H43.3334V29.1667H45.0001V27.5Z" fill="white"/>
<path d="M35.0001 27.5H33.3334V29.1667H35.0001V27.5Z" fill="white"/>
<path d="M31.6667 27.5H30V29.1667H31.6667V27.5Z" fill="white"/>
<path d="M26.6664 41.6669H9.84643C9.38623 40.3651 7.95779 39.6829 6.65612 40.1432C5.35445 40.6035 4.67216 42.0317 5.13237 43.3335C5.59258 44.6353 7.02102 45.3175 8.32268 44.8572C9.03466 44.6055 9.59466 44.0454 9.84633 43.3335H26.6664C27.1266 43.3335 27.4998 42.9604 27.4998 42.5002C27.4998 42.04 27.1266 41.6669 26.6664 41.6669ZM7.49977 43.3335C7.03956 43.3335 6.66643 42.9604 6.66643 42.5002C6.66643 42.04 7.03956 41.6669 7.49977 41.6669C7.95998 41.6669 8.3331 42.04 8.3331 42.5002C8.3331 42.9604 7.95998 43.3335 7.49977 43.3335Z" fill="white"/>
<path d="M38.3332 38.3335H36.6666V40.0002H38.3332V38.3335Z" fill="white"/>
<path d="M41.6667 38.3335H40V40.0002H41.6667V38.3335Z" fill="white"/>
<path d="M45.0001 38.3335H43.3334V40.0002H45.0001V38.3335Z" fill="white"/>
<path d="M35.0001 38.3335H33.3334V40.0002H35.0001V38.3335Z" fill="white"/>
<path d="M31.6667 38.3335H30V40.0002H31.6667V38.3335Z" fill="white"/>
<path d="M38.3332 41.6665H36.6666V43.3332H38.3332V41.6665Z" fill="white"/>
<path d="M41.6667 41.6665H40V43.3332H41.6667V41.6665Z" fill="white"/>
<path d="M45.0001 41.6665H43.3334V43.3332H45.0001V41.6665Z" fill="white"/>
<path d="M35.0001 41.6665H33.3334V43.3332H35.0001V41.6665Z" fill="white"/>
<path d="M31.6667 41.6665H30V43.3332H31.6667V41.6665Z" fill="white"/>
<path d="M38.3332 45H36.6666V46.6667H38.3332V45Z" fill="white"/>
<path d="M41.6667 45H40V46.6667H41.6667V45Z" fill="white"/>
<path d="M45.0001 45H43.3334V46.6667H45.0001V45Z" fill="white"/>
<path d="M35.0001 45H33.3334V46.6667H35.0001V45Z" fill="white"/>
<path d="M31.6667 45H30V46.6667H31.6667V45Z" fill="white"/>
</g>
</svg>
