<svg width="20" height="18" viewBox="0 0 20 18" fill="none" xmlns="http://www.w3.org/2000/svg">
<rect x="0.5" y="0.5" width="19" height="17" rx="4.5" fill="white" stroke="#FF9800"/>
<path d="M7.86621 13.8601L7.86013 13.851L7.85341 13.8423L4.52978 9.56905L4.5298 9.56904L4.52723 9.56582C4.1626 9.11004 4.24517 8.46638 4.7178 8.08827C5.17303 7.72407 5.8157 7.80601 6.19399 8.27714L8.44785 11.1835L8.68566 11.4901L8.92254 11.1827L13.9063 4.71578C14.2846 4.24494 14.9271 4.16312 15.3822 4.52723C15.8548 4.90535 15.9374 5.54901 15.5728 6.00479L15.5727 6.00476L15.5696 6.00876L9.52785 13.8275C9.25588 14.0959 8.97687 14.2607 8.68492 14.2607C8.34904 14.2607 8.0374 14.1168 7.86621 13.8601Z" fill="#5C70CF" stroke="#FAFAFA" stroke-width="0.6"/>
</svg>
