<svg width="9" height="6" viewBox="0 0 9 6" fill="none" xmlns="http://www.w3.org/2000/svg">
<path d="M8.85614 0.855627L8.56134 0.54877C8.46856 0.452938 8.34512 0.400144 8.21319 0.400144C8.08133 0.400144 7.95775 0.452938 7.86497 0.54877L4.50201 4.02517L1.13518 0.544912C1.04255 0.449081 0.918959 0.396362 0.787104 0.396362C0.655249 0.396362 0.53159 0.449081 0.438882 0.544912L0.144001 0.849879C-0.0480004 1.0482 -0.0480004 1.37124 0.144001 1.56956L4.15262 5.72813C4.24525 5.82388 4.36869 5.89135 4.50172 5.89135H4.50326C4.63518 5.89135 4.75862 5.82381 4.85126 5.72813L8.85614 1.58083C8.94893 1.48507 8.99985 1.35362 9 1.21732C9 1.08095 8.94893 0.951307 8.85614 0.855627Z" fill="#5C70CF"/>
</svg>
