<svg fill="none" height="10" viewBox="0 0 10 10" width="10" xmlns="http://www.w3.org/2000/svg"><path d="m6.13798 5.26367 3.47098-3.47108c.22588-.22578.22588-.59084 0-.816615-.22578-.225779-.59083-.225779-.81661 0l-3.47109 3.471075-3.47097-3.471075c-.22589-.225779-.59084-.225779-.81662 0-.225884.225775-.225884.590835 0 .816615l3.47098 3.47108-3.47098 3.47107c-.225884.22578-.225884.59084 0 .81662.11252.11262.26047.1692.40831.1692s.29568-.05658.40831-.1692l3.47097-3.47108 3.47109 3.47108c.11262.11262.26046.1692.4083.1692s.29568-.05658.40831-.1692c.22588-.22578.22588-.59084 0-.81662z" fill="#ff1744"/></svg>