<svg width="8" height="8" viewBox="0 0 8 8" fill="none" xmlns="http://www.w3.org/2000/svg">
<path d="M5.08272 3.6489L7.80838 0.923163C7.98576 0.745864 7.98576 0.459198 7.80838 0.281899C7.63108 0.104601 7.34441 0.104601 7.16712 0.281899L4.44137 3.00764L1.71571 0.281899C1.53832 0.104601 1.25174 0.104601 1.07444 0.281899C0.897061 0.459198 0.897061 0.745864 1.07444 0.923163L3.80011 3.6489L1.07444 6.37465C0.897061 6.55194 0.897061 6.83861 1.07444 7.01591C1.1628 7.10435 1.27898 7.14878 1.39507 7.14878C1.51117 7.14878 1.62726 7.10435 1.71571 7.01591L4.44137 4.29017L7.16712 7.01591C7.25556 7.10435 7.37165 7.14878 7.48775 7.14878C7.60384 7.14878 7.71994 7.10435 7.80838 7.01591C7.98576 6.83861 7.98576 6.55194 7.80838 6.37465L5.08272 3.6489Z" fill="#202020"/>
</svg>
