<svg fill="none" height="11" viewBox="0 0 10 11" width="10" xmlns="http://www.w3.org/2000/svg"><path d="m5.62229 5.6104 3.70032-3.70042c.24081-.2407.24081-.62987 0-.87057-.2407-.240698-.62988-.240698-.87057 0l-3.70043 3.70042-3.70031-3.70042c-.240812-.240698-.629873-.240698-.87057 0-.2408104.2407-.2408104.62987 0 .87057l3.70031 3.70042-3.70031 3.70041c-.2408104.2407-.2408104.62988 0 .87059.119954.12.277675.1804.435284.1804s.315218-.0604.435286-.1804l3.70031-3.70044 3.70043 3.70044c.12006.12.27767.1804.43528.1804s.31522-.0604.43529-.1804c.24081-.24071.24081-.62989 0-.87059z" fill="#fff"/></svg>