<svg width="50" height="50" viewBox="0 0 50 50" fill="none" xmlns="http://www.w3.org/2000/svg">
<path opacity="0.1" d="M49.9989 11.9572C49.9989 11.817 49.9685 11.6801 49.9174 11.5529C49.8967 11.5018 49.8609 11.4627 49.8326 11.4149C49.7957 11.3529 49.7685 11.2855 49.7196 11.2312L39.9361 0.361838C39.7307 0.132495 39.4372 0.000976562 39.1285 0.000976562H37.0025C36.9709 0.000976562 36.9383 0.000976562 36.9068 0.000976562H20.6506C18.8529 0.000976562 17.3898 1.46399 17.3898 3.26178V8.69644H3.2608C1.46301 8.69644 0 10.1595 0 11.9572V46.7391C0 48.5369 1.46301 49.9999 3.2608 49.9999H29.3472C31.145 49.9999 32.608 48.5369 32.608 46.7391V41.3044H46.7381C48.5359 41.3044 49.9989 39.8414 49.9989 38.0436V14.1365C49.9989 14.1344 50 14.1333 50 14.1311L49.9989 11.9572ZM30.4341 46.7391C30.4341 47.338 29.9461 47.826 29.3472 47.826H3.2608C2.6619 47.826 2.17387 47.338 2.17387 46.7391V11.9572C2.17387 11.3583 2.6619 10.8703 3.2608 10.8703H17.3909V22.8266C17.3909 23.4266 17.8779 23.9135 18.4779 23.9135H30.4341V46.7391ZM30.4341 21.7396H19.5648V10.8703H20.2017L30.4341 21.1038V21.7396ZM47.825 38.0436C47.825 38.6436 47.337 39.1306 46.7381 39.1306H32.608V22.8755C32.608 22.8592 32.6091 22.8429 32.6091 22.8266L32.608 20.6527C32.608 20.6527 32.608 20.6516 32.608 20.6494C32.6069 20.3614 32.4949 20.1005 32.3113 19.9071C32.3113 19.9049 32.308 19.9049 32.3091 19.9049C32.3091 19.9049 32.308 19.9038 32.308 19.9027C32.3069 19.9027 32.3058 19.9016 32.3058 19.9005C32.3015 19.8962 32.296 19.8908 32.2906 19.8853L21.4213 9.016C21.2169 8.81166 20.9398 8.69644 20.6517 8.69644H19.5637V3.26178C19.5637 2.66288 20.0517 2.17484 20.6506 2.17484H35.8677V14.1311C35.8677 14.7311 36.3546 15.218 36.9546 15.218H47.825V38.0436ZM47.825 13.0442H38.0416V2.17484H38.6448L47.825 12.3746V13.0442Z" fill="white"/>
</svg>
