<svg width="11" height="7" viewBox="0 0 11 7" fill="none" xmlns="http://www.w3.org/2000/svg">
<path d="M10.8242 0.794494L10.4639 0.43167C10.3505 0.31836 10.1996 0.255937 10.0383 0.255937C9.87719 0.255937 9.72614 0.31836 9.61274 0.43167L5.50246 4.54213L1.38744 0.427109C1.27422 0.313799 1.12317 0.251465 0.962016 0.251465C0.80086 0.251465 0.649721 0.313799 0.536411 0.427109L0.176001 0.787697C-0.0586671 1.02219 -0.0586671 1.40415 0.176001 1.63864L5.07542 6.55568C5.18864 6.6689 5.33951 6.74867 5.5021 6.74867H5.50398C5.66522 6.74867 5.8161 6.66881 5.92932 6.55568L10.8242 1.65196C10.9376 1.53874 10.9998 1.38331 11 1.22216C11 1.06091 10.9376 0.907625 10.8242 0.794494Z" fill="#5C70CF"/>
</svg>
