<svg width="13" height="13" viewBox="0 0 13 13" fill="none" xmlns="http://www.w3.org/2000/svg">
<path d="M0.502452 12.6468C0.371008 12.6468 0.242573 12.5946 0.147251 12.5003C0.0288502 12.3819 -0.0233264 12.2113 0.00978562 12.0478L0.719185 8.50075C0.739253 8.40242 0.785409 8.31312 0.85665 8.24389L8.66105 0.439487C9.24703 -0.146496 10.2033 -0.146496 10.7892 0.439487L12.208 1.85829C12.795 2.44527 12.795 3.3995 12.208 3.98649L4.40365 11.7909C4.33441 11.8611 4.24511 11.9083 4.14678 11.9283L0.599782 12.6377C0.567673 12.6438 0.534561 12.6468 0.502452 12.6468ZM1.67442 8.84492L1.14262 11.5049L3.80262 10.9731L11.4997 3.27608C11.6953 3.08042 11.6953 2.76234 11.4997 2.56668L10.0809 1.14788C9.88519 0.952221 9.56711 0.952221 9.37145 1.14788L1.67442 8.84492ZM4.04945 11.4357H4.05948H4.04945Z" fill="white"/>
</svg>
