<svg width="23" height="23" viewBox="0 0 23 23" fill="none" xmlns="http://www.w3.org/2000/svg">
<g clip-path="url(#clip0)">
<path d="M10.4252 10.6348C9.27279 10.6348 8.33624 11.5713 8.33624 12.7237C8.33624 13.8762 9.27279 14.8127 10.4252 14.8127C11.5776 14.8127 12.5142 13.8762 12.5142 12.7237C12.5142 11.5713 11.5776 10.6348 10.4252 10.6348Z" fill="#797979" fill-opacity="0.6"/>
<path d="M10.4252 7.50098C6.94358 7.50098 3.97028 9.66653 2.76562 12.7234C3.97028 15.7803 6.94358 17.9459 10.4252 17.9459C13.9103 17.9459 16.8802 15.7803 18.0848 12.7234C16.8802 9.66653 13.9103 7.50098 10.4252 7.50098ZM10.4252 16.205C8.50336 16.205 6.94358 14.6452 6.94358 12.7234C6.94358 10.8015 8.50336 9.24178 10.4252 9.24178C12.3471 9.24178 13.9069 10.8016 13.9069 12.7234C13.9069 14.6453 12.3471 16.205 10.4252 16.205Z" fill="#797979" fill-opacity="0.6"/>
</g>
<path d="M21.5001 2L3.65967 19.0106" stroke="white" stroke-width="4"/>
<path d="M19.8404 4.48926L2 21.4999" stroke="#797979" stroke-opacity="0.7" stroke-width="2"/>
<defs>
<clipPath id="clip0">
<rect width="15.3191" height="15.3191" fill="white" transform="translate(2.76562 5.06348)"/>
</clipPath>
</defs>
</svg>
