<svg width="12" height="13" viewBox="0 0 12 13" fill="none" xmlns="http://www.w3.org/2000/svg">
<path d="M4.49173 1.95668L2.68614 0.151089C2.48494 -0.050363 2.15787 -0.050363 1.95668 0.151089L0.151089 1.95668C-0.0503631 2.15813 -0.0503631 2.48468 0.151089 2.68614C0.352283 2.88759 0.679353 2.88759 0.880547 2.68614L1.80552 1.76116V11.8652C1.80552 12.15 2.03664 12.3811 2.32141 12.3811C2.60617 12.3811 2.83729 12.15 2.83729 11.8652V1.76116L3.76227 2.68614C3.86287 2.78699 3.99493 2.83729 4.127 2.83729C4.25906 2.83729 4.39113 2.78699 4.49173 2.68614C4.69318 2.48468 4.69318 2.15813 4.49173 1.95668Z" fill="#5C70CF"/>
<path d="M10.9689 9.69498C10.7674 9.49353 10.4409 9.49353 10.2394 9.69498L9.31446 10.62V0.515883C9.31446 0.231115 9.08334 0 8.79858 0C8.51381 0 8.28269 0.231115 8.28269 0.515883V10.62L7.35772 9.69498C7.15627 9.49353 6.82946 9.49353 6.62826 9.69498C6.42681 9.89643 6.42681 10.223 6.62826 10.4244L8.43385 12.23C8.5347 12.3309 8.66651 12.3812 8.79858 12.3812C8.93064 12.3812 9.06245 12.3309 9.16331 12.23L10.9689 10.4244C11.1703 10.223 11.1703 9.89643 10.9689 9.69498Z" fill="#5C70CF"/>
</svg>
