<svg width="98" height="100" viewBox="0 0 98 100" fill="none" xmlns="http://www.w3.org/2000/svg">
<g clip-path="url(#clip0)" filter="url(#filter0_d)">
<path d="M17.9973 42.525L45.8044 26.4927L73.6115 42.525L73.6307 42.5139V63.9347L45.8044 80.0002L17.9781 63.9347V42.5139L17.9973 42.525Z" fill="#ED7064"/>
<path d="M17.9781 63.9345L45.8044 80V58.5793L17.9781 42.5137V63.9345Z" fill="#C40041"/>
<path d="M45.8044 58.5793L73.6308 42.5137V63.9345L45.8044 80V58.5793Z" fill="#F43834"/>
<path d="M16.503 34.2767L45.8044 17.3828L75.1058 34.2767L75.1259 34.265V41.6762L45.8044 58.605L16.4828 41.6762V34.265L16.503 34.2767Z" fill="#FF8A5C"/>
<path d="M16.4828 41.6758L45.8044 58.6047V51.1935L16.4828 34.2646V41.6758Z" fill="#F43834"/>
<path d="M45.8044 51.1935L75.126 34.2646V41.6758L45.8044 58.6047V51.1935Z" fill="#FF5331"/>
<path d="M34.0073 73.1892L26.7228 68.9834V40.1528L55.9901 23.2554L63.271 27.4533L34.0073 44.3487V73.1892Z" fill="#FF812C"/>
<path d="M57.7476 73.1032L65.0321 68.8975V40.0669L35.765 23.1694L28.4839 27.3674L57.7476 44.2627V73.1032Z" fill="#FF9F2C"/>
<path d="M57.7476 44.2627L65.0321 40.0669L35.765 23.1694L28.4839 27.3674L57.7476 44.2627Z" fill="#FFD800"/>
<path d="M34.0073 44.3487L26.7228 40.1529L55.9901 23.2554L63.271 27.4533L34.0073 44.3487Z" fill="#FFD800"/>
<path d="M76.0821 39.2213L74.3922 35.0733L81.5172 32.8081L48.2589 26.8101L42.8278 33.2238L76.0821 39.2213Z" fill="#F0C419"/>
<path d="M45.5242 60.6977L42.0696 57.8469L37.7812 63.9713L41.9819 30.4385L49.7244 27.1689L45.5242 60.6977Z" fill="#F0C419"/>
<path d="M48.3144 29.8786C47.8083 29.2526 47.6573 28.414 47.9107 27.6499C49.1762 23.8329 52.7611 14.0591 58.7343 12.2486C64.3159 10.5568 71.341 17.8068 66.8897 24.6909C63.3452 30.1724 54.9408 31.7882 51.6634 32.2191C50.8462 32.3265 50.0333 32.0048 49.515 31.3639L48.3144 29.8786Z" fill="#FFD800"/>
<path d="M62.9309 20.1106C65.5613 18.6713 66.9475 20.3122 66.0492 22.967C65.1509 25.6219 60.5544 28.1526 57.8247 29.488C55.095 30.8234 51.347 31.3055 51.347 31.3055C51.347 31.3055 60.3006 21.5499 62.9309 20.1106Z" fill="#DCA700"/>
<path d="M39.3801 29.5035C40.2898 28.7851 41.3281 28.403 42.3687 28.3211C43.7543 28.2118 44.9853 27.5012 45.7728 26.3558C46.3642 25.4955 47.2145 24.7872 48.2917 24.3586C50.5685 23.4527 53.2382 24.2182 54.697 26.187C56.69 28.8768 55.8562 32.6138 53.0424 34.2384C52.2826 34.6771 51.4621 34.9126 50.6425 34.9628C49.3106 35.0443 48.1242 35.7292 47.3877 36.8419C46.9345 37.5266 46.3202 38.1193 45.5604 38.558C42.7465 40.1826 39.093 39.036 37.7603 35.9648C36.785 33.7168 37.4571 31.0222 39.3801 29.5035Z" fill="#FFE252"/>
<path d="M41.4548 32.7481C41.0275 32.0658 40.2836 31.6501 39.4787 31.6411C35.4575 31.5959 25.0491 31.8058 21.3937 36.865C17.978 41.5925 22.5478 50.5943 30.5056 48.6248C36.8421 47.0565 41.1044 39.6351 42.5781 36.6763C42.9456 35.9385 42.9059 35.0651 42.4684 34.3666L41.4548 32.7481Z" fill="#FFD800"/>
<path d="M27.4626 43.3914C25.2458 45.4103 26.3464 47.255 29.1491 47.2694C31.9518 47.2837 35.8403 43.7606 37.9912 41.614C40.1421 39.4672 41.8174 36.0801 41.8174 36.0801C41.8174 36.0801 29.6795 41.3724 27.4626 43.3914Z" fill="#DCA700"/>
</g>
<defs>
<filter id="filter0_d" x="-1" y="0" width="100" height="100" filterUnits="userSpaceOnUse" color-interpolation-filters="sRGB">
<feFlood flood-opacity="0" result="BackgroundImageFix"/>
<feColorMatrix in="SourceAlpha" type="matrix" values="0 0 0 0 0 0 0 0 0 0 0 0 0 0 0 0 0 0 127 0"/>
<feOffset dy="4"/>
<feGaussianBlur stdDeviation="8"/>
<feColorMatrix type="matrix" values="0 0 0 0 0 0 0 0 0 0 0 0 0 0 0 0 0 0 0.21 0"/>
<feBlend mode="normal" in2="BackgroundImageFix" result="effect1_dropShadow"/>
<feBlend mode="normal" in="SourceGraphic" in2="effect1_dropShadow" result="shape"/>
</filter>
<clipPath id="clip0">
<rect width="68" height="68" fill="white" transform="translate(15 12)"/>
</clipPath>
</defs>
</svg>
