<svg width="8" height="10" viewBox="0 0 8 10" fill="none" xmlns="http://www.w3.org/2000/svg">
<g opacity="0.3">
<path d="M3.95306 4.93854L7.61278 1.2788C7.87579 1.01579 7.87579 0.589158 7.61278 0.326151C7.34978 0.0630374 6.92327 0.0630374 6.66013 0.326151L2.52379 4.4623C2.39241 4.59387 2.32674 4.76612 2.32674 4.93852C2.32674 5.11092 2.39254 5.2833 2.52379 5.41468L6.66015 9.55092C6.92327 9.81403 7.3498 9.81403 7.6128 9.55092C7.87581 9.28791 7.87581 8.86134 7.6128 8.59835L3.95306 4.93854ZM1.46037 0.128864V9.41716C1.46037 9.48852 1.40287 9.54602 1.33153 9.54602H0.128922C0.0576882 9.54602 5.91278e-05 9.48852 5.91278e-05 9.41716V0.128864C5.91278e-05 0.0576299 0.0576882 0 0.128922 0H1.33153C1.40287 0 1.46037 0.0576299 1.46037 0.128864Z" fill="#202020"/>
</g>
</svg>
