<svg width="13" height="11" viewBox="0 0 13 11" fill="none" xmlns="http://www.w3.org/2000/svg">
<path d="M3.86621 9.86008L3.86013 9.85096L3.85341 9.84231L0.529782 5.56905L0.529805 5.56904L0.527234 5.56582C0.162599 5.11004 0.24517 4.46638 0.717796 4.08827C1.17303 3.72407 1.8157 3.80601 2.19399 4.27714L4.44785 7.18346L4.68566 7.49012L4.92254 7.18274L9.90627 0.715779C10.2846 0.244936 10.9271 0.163118 11.3822 0.527234C11.8548 0.905348 11.9374 1.54901 11.5728 2.00479L11.5727 2.00476L11.5696 2.00876L5.52785 9.82752C5.25588 10.0959 4.97687 10.2607 4.68492 10.2607C4.34904 10.2607 4.0374 10.1168 3.86621 9.86008Z" fill="#5C70CF" stroke="#FAFAFA" stroke-width="0.6"/>
</svg>
