<svg fill="none" height="18" viewBox="0 0 18 18" width="18" xmlns="http://www.w3.org/2000/svg"><path d="m17.4369 8.43795h-7.1248c-.3105 0-.56247-.25199-.56247-.56248s.25197-.56248.56247-.56248h7.1248c.3105 0 .5625.25199.5625.56248s-.252.56248-.5625.56248z" fill="#ff9800"/><path d="m14.6245 11.2502c-.144 0-.2879-.0548-.3975-.165-.2197-.2198-.2197-.5761 0-.7958l2.415-2.41483-2.415-2.41499c-.2197-.21972-.2197-.57594 0-.79566.2198-.21986.5761-.21986.7958 0l2.8124 2.81241c.2197.21972.2197.57594 0 .79566l-2.8124 2.81241c-.1103.111-.2542.1658-.3983.1658z" fill="#ff9800"/><path d="m11.5 11v3c0 .5523-.4477 1-1 1h-8c-.55228 0-1-.4477-1-1v-12c0-.55228.44772-1 1-1h8c.5523 0 1 .44772 1 1v2.5" stroke="#ff9800" stroke-linecap="round" stroke-linejoin="round" stroke-width="1.2"/></svg>