<svg width="30" height="30" viewBox="0 0 30 30" fill="none" xmlns="http://www.w3.org/2000/svg">
<g clip-path="url(#clip0)">
<path d="M20.2782 9.06568V10.2799C20.2782 10.5227 20.4749 10.7194 20.7176 10.7194C20.9603 10.7194 21.1571 10.5227 21.1571 10.2799V9.06568C21.1571 8.82204 21.3553 8.62376 21.599 8.62376H23.0532C23.062 8.62376 23.0691 8.63091 23.0691 8.63964V9.52101C23.0691 9.52974 23.0619 9.53689 23.0532 9.53689H22.5979C22.3552 9.53689 22.1584 9.73359 22.1584 9.97635V12.0328C22.1584 12.2756 22.3552 12.4723 22.5979 12.4723H26.4759C26.7185 12.4723 26.9153 12.2756 26.9153 12.0328V9.97635C26.9153 9.73359 26.7185 9.53689 26.4759 9.53689H26.0205C26.0117 9.53689 26.0046 9.52974 26.0046 9.52101V8.63964C26.0046 8.63091 26.0117 8.62376 26.0205 8.62376H27.4747C27.7183 8.62376 27.9166 8.82204 27.9166 9.06568V13.562H21.1571V12.2129C21.1571 11.9702 20.9603 11.7735 20.7176 11.7735C20.4749 11.7735 20.2782 11.9702 20.2782 12.2129V13.562L12.8888 13.562C12.2761 12.4217 11.5353 11.3926 10.6851 10.5023C10.5174 10.3268 10.2393 10.3205 10.0637 10.488C9.88818 10.6557 9.8818 10.9339 10.0494 11.1094C10.7883 11.8831 11.439 12.7711 11.989 13.7512C11.5624 13.9953 11.2691 14.4513 11.2593 14.9728C11.2525 15.3548 11.3983 15.7171 11.6706 15.9946C11.7667 16.0925 11.8758 16.1754 11.9935 16.2425C9.99611 19.7984 6.82523 21.7128 4.78515 21.7128C2.63123 21.7129 0.878913 20.0833 0.878913 18.0803C0.878913 17.0305 1.36788 16.0322 2.22049 15.3414C2.32344 15.258 2.38326 15.1325 2.38326 15C2.38326 14.8674 2.32344 14.742 2.22049 14.6586C1.36788 13.9677 0.878913 12.9694 0.878913 11.9196C0.878913 9.91676 2.63123 8.28743 4.7851 8.28743C5.89229 8.28743 7.3401 8.87858 8.65806 9.86865C8.85212 10.0144 9.12757 9.97529 9.27335 9.78129C9.41914 9.58716 9.38 9.31171 9.18593 9.16599C7.69922 8.04907 6.09515 7.40851 4.78504 7.40851C2.1466 7.40851 0 9.43218 0 11.9196C0 13.0704 0.464535 14.1684 1.28942 14.9999C0.464535 15.8315 0 16.9295 0 18.0803C0 20.568 2.1466 22.5918 4.7851 22.5918C7.18084 22.5918 10.7159 20.4779 12.8876 16.4382H16.5351C16.7778 16.4382 16.9745 16.2415 16.9745 15.9987C16.9745 15.756 16.7778 15.5593 16.5351 15.5593H12.7233C12.5654 15.5593 12.4103 15.4936 12.2979 15.379C12.1921 15.2713 12.1351 15.1341 12.138 14.9893C12.1437 14.687 12.3944 14.441 12.6971 14.441L28.973 14.441C29.0546 14.441 29.1211 14.5074 29.1211 14.5891V15.4112C29.1211 15.4929 29.0546 15.5593 28.973 15.5593L18.4681 15.5593C18.2254 15.5593 18.0287 15.756 18.0287 15.9987C18.0287 16.2415 18.2254 16.4382 18.4681 16.4382H28.973C29.5393 16.4382 30 15.9775 30 15.4112V14.5891C30 14.0227 29.5393 13.5621 28.973 13.5621H28.7955V9.06573C28.7955 8.33741 28.203 7.7449 27.4746 7.7449H26.0204C25.527 7.7449 25.1256 8.14633 25.1256 8.6397V9.52107C25.1256 10.0145 25.527 10.4159 26.0204 10.4159H26.0363V11.5934H23.0373V10.4159H23.0531C23.5466 10.4159 23.9479 10.0144 23.9479 9.52107V8.6397C23.9479 8.14627 23.5465 7.7449 23.0531 7.7449H21.599C20.8707 7.74484 20.2782 8.33741 20.2782 9.06568Z" fill="#5C70CF"/>
<path d="M6.3921 17.4111C7.72148 17.4111 8.803 16.3296 8.803 15.0002C8.803 13.6709 7.72148 12.5893 6.3921 12.5893C5.06273 12.5893 3.9812 13.6709 3.9812 15.0002C3.9812 16.3296 5.06273 17.4111 6.3921 17.4111ZM6.3921 13.4682C7.23685 13.4682 7.9241 14.1554 7.9241 15.0002C7.9241 15.8449 7.23685 16.5322 6.3921 16.5322C5.54735 16.5322 4.86011 15.8449 4.86011 15.0002C4.86011 14.1554 5.54735 13.4682 6.3921 13.4682Z" fill="#5C70CF"/>
</g>
<defs>
<clipPath id="clip0">
<rect width="30" height="30" fill="white" transform="translate(0 30) rotate(-90)"/>
</clipPath>
</defs>
</svg>
