<svg width="62" height="70" viewBox="0 0 62 70" fill="none" xmlns="http://www.w3.org/2000/svg">
<g clip-path="url(#clip0)" filter="url(#filter0_d)">
<path d="M35.5906 46.2998H26.4091V56.583H35.5906V46.2998Z" fill="#FDCC9B"/>
<path d="M26.4094 47.5106C26.4094 47.5106 30.2716 49.97 35.5909 49.4003V46.2993H26.4094V47.5106Z" fill="#FCBC85"/>
<path d="M13.1699 35.4657C15.6441 35.4657 17.6499 33.1773 17.6499 30.3544C17.6499 27.5316 15.6441 25.2432 13.1699 25.2432C10.6956 25.2432 8.68987 27.5316 8.68987 30.3544C8.68987 33.1773 10.6956 35.4657 13.1699 35.4657Z" fill="#FCBC85"/>
<path d="M48.8301 35.4657C51.3044 35.4657 53.3102 33.1773 53.3102 30.3544C53.3102 27.5316 51.3044 25.2432 48.8301 25.2432C46.3559 25.2432 44.3501 27.5316 44.3501 30.3544C44.3501 33.1773 46.3559 35.4657 48.8301 35.4657Z" fill="#FCBC85"/>
<path d="M48.812 20.5915C48.812 13.0629 43.3031 7.55371 31 7.55371C18.6969 7.55371 13.188 13.0626 13.188 20.5915C13.188 28.1203 11.9027 47.9523 31 47.9523C50.0973 47.9523 48.812 28.1203 48.812 20.5915Z" fill="#FDCC9B"/>
<path d="M22.3242 31.2421C23.3891 31.2421 24.2523 30.2967 24.2523 29.1303C24.2523 27.964 23.3891 27.0186 22.3242 27.0186C21.2593 27.0186 20.3961 27.964 20.3961 29.1303C20.3961 30.2967 21.2593 31.2421 22.3242 31.2421Z" fill="#3B2519"/>
<path d="M21.4837 28.7748C21.8021 28.7748 22.0603 28.5166 22.0603 28.1982C22.0603 27.8797 21.8021 27.6216 21.4837 27.6216C21.1652 27.6216 20.9071 27.8797 20.9071 28.1982C20.9071 28.5166 21.1652 28.7748 21.4837 28.7748Z" fill="white"/>
<path d="M19.2398 23.8968C20.1515 24.3528 21.6155 22.3475 24.9667 24.092C25.5776 24.41 25.9421 21.3721 22.3501 21.3721C19.2398 21.3721 18.6888 23.6216 19.2398 23.8968Z" fill="#51362A"/>
<path d="M39.9138 31.2421C40.9787 31.2421 41.842 30.2967 41.842 29.1303C41.842 27.964 40.9787 27.0186 39.9138 27.0186C38.8489 27.0186 37.9857 27.964 37.9857 29.1303C37.9857 30.2967 38.8489 31.2421 39.9138 31.2421Z" fill="#3B2519"/>
<path d="M39.0733 28.7748C39.3918 28.7748 39.6499 28.5166 39.6499 28.1982C39.6499 27.8797 39.3918 27.6216 39.0733 27.6216C38.7549 27.6216 38.4967 27.8797 38.4967 28.1982C38.4967 28.5166 38.7549 28.7748 39.0733 28.7748Z" fill="white"/>
<path d="M42.7602 23.8968C41.8485 24.3528 40.3845 22.3475 37.0333 24.092C36.4224 24.41 36.0579 21.3721 39.6502 21.3721C42.7602 21.3721 43.3109 23.6216 42.7602 23.8968Z" fill="#51362A"/>
<path d="M31 36.5581C29.0947 36.5581 27.9471 35.135 27.9471 35.8234C27.9471 36.5122 28.4981 37.8206 31 37.8206C33.5019 37.8206 34.0529 36.5122 34.0529 35.8234C34.0529 35.1347 32.905 36.5581 31 36.5581Z" fill="#FCBC85"/>
<path d="M31 42.8894C30.341 42.8894 29.944 42.3971 29.944 42.6355C29.944 42.8738 30.1345 43.3261 31 43.3261C31.8655 43.3261 32.0557 42.8738 32.0557 42.6355C32.0557 42.3971 31.6587 42.8894 31 42.8894Z" fill="#FCBC85"/>
<path d="M31 41.1351C27.9802 41.1351 26.1608 39.9054 26.1608 40.2171C26.1608 40.5289 27.0341 41.7551 31 41.7551C34.9659 41.7551 35.8392 40.5289 35.8392 40.2171C35.8389 39.9054 34.0198 41.1351 31 41.1351Z" fill="#F7945E"/>
<path d="M31 50.4312V61.9999H8.68987C8.68987 57.3172 20.4414 50.4312 31 50.4312Z" fill="#F7941E"/>
<path d="M31 50.4312V61.9999H53.3101C53.3101 57.3172 41.5586 50.4312 31 50.4312Z" fill="#F7941E"/>
<path d="M31 50.4312C28.7542 50.4312 26.4547 50.7451 24.2255 51.2807C24.2405 51.3004 26.698 54.4711 31 54.4711C34.9837 54.4711 37.6321 51.7558 38.016 51.3382C35.7115 50.7663 33.327 50.4312 31 50.4312Z" fill="#F36C21"/>
<path d="M26.4091 50.8316C26.4091 50.8316 27.7519 52.4971 30.9997 52.4971C34.2475 52.4971 35.5906 50.8316 35.5906 50.8316C35.5906 50.8316 30.8279 49.0978 26.4091 50.8316Z" fill="#FDCC9B"/>
<path d="M45.6442 5.94721C45.6442 5.94721 39.0336 -2.45373 25.294 0.713799C11.5547 3.88102 10.5252 12.1445 10.9385 20.1841C11.3517 28.2239 12.4533 32.9404 13.7565 32.3576C15.0596 31.7744 14.3815 26.4676 14.5192 25.2429C14.657 24.0182 15.8964 18.4796 24.2526 19.3061C32.6086 20.1325 39.6502 17.1024 39.6502 17.1024C39.6502 17.1024 42.4848 20.6854 44.3501 21.3719C48.0777 22.7435 46.8551 31.8887 48.3157 31.8887C49.7762 31.8887 56.9374 10.7674 45.6442 5.94721Z" fill="#51362A"/>
</g>
<defs>
<filter id="filter0_d" x="-4" y="0" width="70" height="70" filterUnits="userSpaceOnUse" color-interpolation-filters="sRGB">
<feFlood flood-opacity="0" result="BackgroundImageFix"/>
<feColorMatrix in="SourceAlpha" type="matrix" values="0 0 0 0 0 0 0 0 0 0 0 0 0 0 0 0 0 0 127 0"/>
<feOffset dy="4"/>
<feGaussianBlur stdDeviation="2"/>
<feColorMatrix type="matrix" values="0 0 0 0 0 0 0 0 0 0 0 0 0 0 0 0 0 0 0.25 0"/>
<feBlend mode="normal" in2="BackgroundImageFix" result="effect1_dropShadow"/>
<feBlend mode="normal" in="SourceGraphic" in2="effect1_dropShadow" result="shape"/>
</filter>
<clipPath id="clip0">
<rect width="62" height="62" fill="white"/>
</clipPath>
</defs>
</svg>
