<svg width="11" height="18" viewBox="0 0 11 18" fill="none" xmlns="http://www.w3.org/2000/svg">
<path d="M0.958661 0.28771L0.364949 0.877325C0.179533 1.06289 0.0773857 1.30977 0.0773857 1.57362C0.0773857 1.83733 0.179533 2.08451 0.364949 2.27007L7.09115 8.99598L0.357485 15.7296C0.172069 15.9149 0.0700684 16.1621 0.0700684 16.4258C0.0700684 16.6895 0.172069 16.9368 0.357485 17.1222L0.947539 17.712C1.33125 18.096 1.95628 18.096 2.33999 17.712L10.3861 9.69476C10.5713 9.50949 10.7019 9.26261 10.7019 8.99656V8.99349C10.7019 8.72963 10.5712 8.48275 10.3861 8.29748L2.36179 0.28771C2.17652 0.102148 1.92218 0.000293732 1.65847 0C1.39462 0 1.14378 0.102148 0.958661 0.28771Z" fill="#FF9800"/>
</svg>
