<svg width="22" height="20" viewBox="0 0 22 20" fill="none" xmlns="http://www.w3.org/2000/svg">
<rect x="0.5" y="0.5" width="21" height="18.8" rx="4.5" fill="white" stroke="#FF9800"/>
<path d="M15.532 9.05193H11.408V4.9279C11.408 4.58127 11.1267 4.29993 10.78 4.29993C10.4333 4.29993 10.152 4.58128 10.152 4.9279V9.05193H6.02797C5.68135 9.05193 5.4 9.33328 5.4 9.6799C5.4 10.0266 5.68133 10.308 6.02797 10.308H10.152V14.4319C10.152 14.7786 10.4333 15.06 10.78 15.06C11.1267 15.06 11.408 14.7786 11.408 14.4319V10.308H15.532C15.8787 10.308 16.16 10.0266 16.16 9.6799C16.16 9.33327 15.8787 9.05193 15.532 9.05193Z" fill="#4859A4" stroke="#4859A4" stroke-width="0.2"/>
</svg>
