<svg width="11" height="18" viewBox="0 0 11 18" fill="none" xmlns="http://www.w3.org/2000/svg">
<path d="M10.1114 0.28771L10.7051 0.877325C10.8905 1.06289 10.9927 1.30977 10.9927 1.57362C10.9927 1.83733 10.8905 2.08451 10.7051 2.27007L3.97892 8.99598L10.7126 15.7296C10.898 15.9149 11 16.1621 11 16.4258C11 16.6895 10.898 16.9368 10.7126 17.1222L10.1225 17.712C9.73882 18.096 9.11379 18.096 8.73008 17.712L0.684015 9.69476C0.498746 9.50949 0.368207 9.26261 0.368207 8.99656V8.99349C0.368207 8.72963 0.498892 8.48275 0.684015 8.29748L8.70827 0.28771C8.89354 0.102148 9.14789 0.000293732 9.4116 0C9.67545 0 9.92628 0.102148 10.1114 0.28771Z" fill="#FF9800"/>
</svg>
