<svg width="6" height="10" viewBox="0 0 6 10" fill="none" xmlns="http://www.w3.org/2000/svg">
<path d="M0.540355 0.159839L0.210514 0.487403C0.107506 0.590493 0.0507571 0.727648 0.0507571 0.874234C0.0507571 1.02074 0.107506 1.15806 0.210514 1.26115L3.94729 4.99776L0.206368 8.73869C0.103359 8.84162 0.0466919 8.97893 0.0466919 9.12544C0.0466919 9.27195 0.103359 9.40934 0.206368 9.51235L0.534176 9.84C0.747348 10.0533 1.09459 10.0533 1.30776 9.84L5.7778 5.38598C5.88072 5.28305 5.95324 5.1459 5.95324 4.99809V4.99638C5.95324 4.8498 5.88064 4.71264 5.7778 4.60971L1.31987 0.159839C1.21695 0.0567484 1.07564 0.000163078 0.929138 0C0.782552 0 0.643201 0.0567484 0.540355 0.159839Z" fill="#FF9800"/>
</svg>
