<svg width="7" height="10" viewBox="0 0 7 10" fill="none" xmlns="http://www.w3.org/2000/svg">
<path d="M6.36327 0.159839L6.69311 0.487403C6.79612 0.590493 6.85287 0.727648 6.85287 0.874234C6.85287 1.02074 6.79612 1.15806 6.69311 1.26115L2.95633 4.99776L6.69726 8.73869C6.80027 8.84162 6.85693 8.97893 6.85693 9.12544C6.85693 9.27195 6.80027 9.40934 6.69726 9.51235L6.36945 9.84C6.15628 10.0533 5.80904 10.0533 5.59587 9.84L1.12583 5.38598C1.0229 5.28305 0.950381 5.1459 0.950381 4.99809V4.99638C0.950381 4.8498 1.02298 4.71264 1.12583 4.60971L5.58375 0.159839C5.68668 0.0567484 5.82798 0.000163078 5.97449 0C6.12107 0 6.26042 0.0567484 6.36327 0.159839Z" fill="#FF9800"/>
</svg>
