<svg width="7" height="10" viewBox="0 0 7 10" fill="none" xmlns="http://www.w3.org/2000/svg">
<path d="M1.44398 0.159839L1.11414 0.487403C1.01113 0.590493 0.954383 0.727648 0.954383 0.874234C0.954383 1.02074 1.01113 1.15806 1.11414 1.26115L4.85092 4.99776L1.10999 8.73869C1.00698 8.84162 0.950317 8.97893 0.950317 9.12544C0.950317 9.27195 1.00698 9.40934 1.10999 9.51235L1.4378 9.84C1.65097 10.0533 1.99821 10.0533 2.21138 9.84L6.68142 5.38598C6.78435 5.28305 6.85687 5.1459 6.85687 4.99809V4.99638C6.85687 4.8498 6.78427 4.71264 6.68142 4.60971L2.2235 0.159839C2.12057 0.0567484 1.97927 0.000163078 1.83276 0C1.68618 0 1.54683 0.0567484 1.44398 0.159839Z" fill="#A6A6A6"/>
</svg>
