<svg fill="none" height="26" viewBox="0 0 26 26" width="26" xmlns="http://www.w3.org/2000/svg"><g fill="#fff" opacity=".5"><path d="m5.57979 11.4446c-.10542-.069-.2624-.104-.46863-.104l-.17631.0009c-.11554-.0009-.23385.0921-.25641.2044l-.1625.6997c-.02532.1132.04696.2058.16388.2058h.13166c.29232 0 .5188-.0594.6813-.1791.1625-.1188.24583-.2877.24214-.5064.00092-.1445-.05109-.2527-.15513-.3213z"/><path d="m8.45692 13.0571c-.03176.0009-.27528.0286-.39865.0438-.1381.0198-.25779.0474-.35492.0801l-.22833.1556c-.0534.0672-.07872.1528-.07872.2628l.10404.2016c.07043.0396.17447.059.30704.059.08747 0 .1823-.0212.28173-.0617l.21176-.1091.08378-.1114c.03315-.1298.10174-.4185.10956-.4544z"/><path d="m25.3307 4.57544h-24.661366c-.370113 0-.669334.29968-.669334.66933v15.51073c0 .3696.299221.6698.669334.6698h24.661366c.3701 0 .6693-.2997.6693-.6694v-15.51113c0-.36965-.2992-.66933-.6693-.66933zm-19.12348 8.17376c-.36643.2698-.87648.4042-1.53569.4051h-.15375c-.11831 0-.23386.093-.25825.2044l-.18506.8001c-.02624.1142-.14179.2053-.25871.2053h-.5386c-.11693 0-.19012-.0939-.1625-.2053l.75726-3.2974c.02762-.1133.14224-.2039.25917-.2058l1.12507-.0004c.24306.0023.45344.017.63573.0501.17953.0341.33605.0912.46863.1722.12705.0801.22971.1874.29415.3172.07182.1298.10358.2923.10358.4856 0 .442-.18183.7992-.55103 1.0689zm3.34299-.4207-.02025.1385-.39313 1.6996c-.02302.1022-.12429.1892-.23155.2017l-.00737.0027h-.0778-.41338-.00967l-.00184-.0018c-.10266-.0097-.16618-.0967-.14409-.2017v-.0009l.00092-.0032.02026-.0865-.00276-.0033-.20301.134-.22097.1234-.26055.0893c-.0801.0193-.19288.0308-.33835.0308-.22971 0-.42213-.0631-.5676-.1933-.14454-.1331-.21912-.3029-.21912-.511 0-.221.0511-.4079.15375-.5635.10634-.1546.25825-.2752.46357-.3655.19104-.087.42075-.1514.68314-.1878.26792-.0387.48888-.0667.79501-.0861l.07734-.0478.00966-.076c0-.1169-.05432-.1975-.1625-.2449-.10956-.046-.27436-.0691-.4898-.0691-.14639-.0018-.33052.0281-.50499.0677-.18276.0414-.23293.0686-.32224.0953-.04143.0143-.14133.0212-.10404-.1519l.06583-.2711s.03222-.2049.23708-.2496c.09897-.0221.11462-.0262.2762-.0511.21866-.0336.43502-.0506.65184-.0506.43871 0 .76002.0571.96303.1717.20393.1142.30797.2928.30705.5326zm.86589 3.3485-.55792.0009c-.11601 0-.15421-.092-.08332-.2053l.47734-.8323s.0382-.0474.0042-.319c-.0737-.4907-.44011-2.577-.44011-2.577-.0267-.1128.04511-.2053.16112-.2053l.48289-.0009c.1478 0 .2665.0971.2932.2113l.2403 1.4468.0893.0009c.0751-.133.8466-1.4569.8466-1.4569.0737-.1114.2228-.2058.3388-.2058 0 0 .5188.0014.6463 0 .1915-.0028-.0147.3075-.0147.3075l-2.147 3.6307c-.0691.1133-.2219.2044-.337.2044zm5.578-2.9135c-.3679.2684-.8802.4042-1.5394.4042h-.1538c-.116-.0019-.232.0925-.2587.2039l-.1823.8015c-.0267.1118-.1445.2039-.2587.2025l-.54.0014c-.1146.0005-.1901-.0925-.1625-.2044l.7577-3.2992c.0277-.1119.1409-.2031.2578-.2049l1.1265-.0009c.2417.0009.4543.0179.633.0497.1818.0331.3383.0902.469.1717.1285.0824.2293.1878.2965.3186.069.1289.1027.2918.1036.4852 0 .4414-.1846.7977-.5487 1.0707zm3.3411-.4327-.0198.1395-.394 1.6982c-.0221.1026-.1239.1896-.2298.2025l-.0073.0028h-.0774c-.1114 0-.3461 0-.4138 0h-.0097l-.0009-.0028c-.1045-.0097-.1689-.0962-.1436-.2016l-.0009-.0014.0023-.0018.0179-.0866-.0032-.0041-.2016.1358-.2224.1229-.2601.0879c-.0801.0207-.1933.0295-.3374.0318-.2302 0-.4208-.0654-.5671-.1947-.1455-.1317-.2205-.3025-.2205-.5115 0-.2196.0511-.4074.1542-.5621.1054-.1546.2596-.2748.4631-.3659.1924-.0875.4235-.151.6845-.1878.2661-.0387.487-.0668.7955-.0857l.0773-.0488.0083-.0759c0-.116-.0534-.1975-.163-.2445-.1095-.0465-.2743-.0695-.4889-.0695-.1473-.0009-.3319.0286-.5059.0677-.1818.0423-.2311.0686-.3199.0953-.0451.0133-.1422.0212-.1054-.1519l.0658-.2707s.0309-.2053.2366-.2495c.0999-.0216.116-.0267.2771-.0502.2173-.035.4351-.052.6519-.052.4369 0 .7577.058.9626.1726.2053.1142.3079.2919.3079.5317zm1.7263-1.4303-.7218 3.2689-.0254.0387c-.0428.092-.1339.1666-.2329.1666h-.5008l-.0092-.0115c-.0953-.0147-.1575-.0916-.1349-.192l-.0009-.0023.0216-.0943.6748-3.0668.024-.1068.0271-.0419c.0438-.0902.1331-.1634.2321-.1634h.4819c.1174 0 .1878.0916.163.2039zm.9566-.3535h-.1805v.2398l.0014.0645.0124.0432.0286.0276.0552.0088.0451-.0065.0336-.0101h.0042v.0787l-.0539.0106-.0511.0042-.1224-.0438-.0419-.1381v-.2789h-.0608v-.0746h.0608v-.1496h.0888v.1496h.1805zm.8723.11v.3393h-.087v-.2993l-.0055-.0639-.0115-.0507-.0304-.0299-.0585-.0106-.0732.0189-.075.0474.0014.0258.0009.0276v.3356h-.0875v-.2992l-.0037-.0649-.0124-.0502-.0294-.0299-.0594-.0106-.0723.0179-.0732.0456v.3913h-.0865v-.5243h.0865v.0584l.0838-.0534.0865-.0193.0912.0216.0561.0626.0967-.0649.0944-.0193.1275.052.0414.1464z"/><path d="m18.2423 13.0598c-.0317-.0004-.2743.0281-.3958.0438-.1395.0197-.2588.0469-.355.0801-.0985.0386-.1786.0906-.2306.1555-.0516.0673-.0773.1529-.0773.2634l.1054.2011c.0672.0401.1698.0594.3066.0594.0861 0 .1809-.0212.2799-.0612l.2103-.1091.0866-.1114c.0322-.1312.1022-.4189.1077-.4548z"/><path d="m15.3625 11.4568c-.1064-.0695-.261-.1036-.4677-.1045l-.1754.0009c-.116-.0009-.2339.093-.2578.2049l-.163.6992c-.0262.1123.0488.2063.1653.2053h.134c.2913 0 .5174-.0598.6803-.1767.1612-.1202.2431-.2877.2422-.5083-.0028-.1436-.053-.2518-.1579-.3208z"/></g></svg>