<svg width="12" height="14" viewBox="0 0 12 14" fill="none" xmlns="http://www.w3.org/2000/svg">
<g clip-path="url(#clip0)">
<path d="M11.4 6.22988H6.60004V1.26813C6.60004 0.925842 6.3312 0.647949 5.99996 0.647949C5.66884 0.647949 5.4 0.925842 5.4 1.26813V6.22988H0.599963C0.268835 6.22988 0 6.50778 0 6.85006C0 7.19246 0.268835 7.47035 0.599963 7.47035H5.4V12.432C5.4 12.7744 5.66884 13.0523 5.99996 13.0523C6.3312 13.0523 6.60004 12.7744 6.60004 12.432V7.47035H11.4C11.7312 7.47035 12 7.19246 12 6.85006C12 6.50778 11.7312 6.22988 11.4 6.22988Z" fill="#5C70CF"/>
</g>
<defs>
<clipPath id="clip0">
<rect width="12" height="12.4043" fill="white" transform="translate(0 0.647949)"/>
</clipPath>
</defs>
</svg>
