<svg width="20" height="17" viewBox="0 0 20 17" fill="none" xmlns="http://www.w3.org/2000/svg">
<path d="M1.83946 8.02079L4.63127 10.6663L4.63129 10.6663C4.81856 10.8442 5.07107 10.9116 5.3075 10.8713C5.46933 10.8437 5.6249 10.7651 5.74703 10.6362L8.39251 7.84441L8.40626 7.82989L8.39175 7.81614L7.27501 6.75795L7.26049 6.74419L7.24674 6.75871L5.75298 8.33554C5.73489 5.75443 7.5846 3.45873 10.2097 3.01133C13.1259 2.51434 15.9024 4.48227 16.3994 7.39841C16.8964 10.3145 14.9284 13.0911 12.0123 13.5881L11.9926 13.5914L11.996 13.6111L12.2544 15.1277L12.2578 15.1474L12.2775 15.1441C16.0511 14.501 18.5985 10.9068 17.9554 7.13322C17.3123 3.35966 13.7181 0.812185 9.94454 1.45531C6.64474 2.01769 4.28473 4.83608 4.17325 8.05727L2.92516 6.87502L2.91064 6.86127L2.89689 6.87579L1.83869 7.99252L1.82494 8.00704L1.83946 8.02079Z" fill="#B3B3B3" stroke="#B3B3B3" stroke-width="0.04"/>
</svg>
