<svg width="15" height="18" viewBox="0 0 15 18" fill="none" xmlns="http://www.w3.org/2000/svg">
<path d="M13.2692 12.689H1.73077C0.776361 12.689 0 13.4652 0 14.4194V16.7264C0 17.0453 0.25805 17.3032 0.576945 17.3032H14.4231C14.7419 17.3032 15 17.0452 15 16.7264V14.4194C14.9999 13.4652 14.2236 12.689 13.2692 12.689ZM10.4238 11.5355C9.84801 10.6095 9.23074 9.33366 9.23074 8.07483C9.23074 6.61939 9.62626 5.53231 9.94398 4.65927C10.1806 4.00868 10.3846 3.44713 10.3846 2.88388C10.3846 1.29383 9.091 0 7.49997 0C5.90894 0 4.61537 1.29383 4.61537 2.88388C4.61537 3.44713 4.81933 4.00868 5.05595 4.65927C5.37368 5.53231 5.7692 6.61939 5.7692 8.07483C5.7692 9.33366 5.15193 10.6095 4.57615 11.5355H10.4238Z" fill="#FF9800"/>
</svg>
