<svg width="23" height="23" viewBox="0 0 23 23" fill="none" xmlns="http://www.w3.org/2000/svg">
<path d="M20.9801 13.7958L16.5745 9.3903C16.0567 8.87249 15.4511 8.48203 14.7726 8.2276C14.5182 7.5491 14.1277 6.94347 13.61 6.42566L9.20441 2.02012C8.24494 1.06064 6.96921 0.532227 5.61231 0.532227C4.25541 0.532227 2.97964 1.06064 2.02011 2.02012C1.0605 2.9796 0.532089 4.25537 0.532089 5.61227C0.532089 6.96917 1.0605 8.24498 2.02002 9.20442L6.42557 13.61C6.94338 14.1277 7.54901 14.5181 8.22751 14.7726C8.48194 15.4511 8.8724 16.0567 9.39021 16.5746L13.7958 20.9801C14.7552 21.9396 16.031 22.468 17.3879 22.468C18.7448 22.468 20.0206 21.9396 20.9801 20.9801C22.9608 18.9994 22.9608 15.7765 20.9801 13.7958ZM6.91517 13.1206L2.50944 8.71509C1.68064 7.88633 1.22424 6.7844 1.22424 5.61231C1.22424 4.44026 1.68069 3.33834 2.50944 2.50954C3.3382 1.68073 4.44017 1.22433 5.61226 1.22433C6.78436 1.22433 7.88624 1.68078 8.71504 2.50954L13.1206 6.91504C13.4408 7.23533 13.7048 7.59438 13.9095 7.9874C13.8861 7.98304 13.8625 7.97941 13.8391 7.97541C13.8234 7.97271 13.8077 7.96993 13.7919 7.96737C13.7307 7.95748 13.6693 7.94855 13.6077 7.94091C13.6019 7.94019 13.596 7.93965 13.5901 7.93898C13.5336 7.93219 13.477 7.92653 13.4202 7.92164C13.4048 7.92033 13.3895 7.91912 13.3741 7.91791C13.3189 7.91369 13.2635 7.91018 13.2081 7.9078C13.2004 7.90749 13.1928 7.9069 13.1851 7.90659C13.1223 7.90412 13.0594 7.9029 12.9963 7.90277C12.9916 7.90277 12.987 7.9025 12.9823 7.9025C12.974 7.9025 12.9656 7.90299 12.9574 7.90304C12.8971 7.90335 12.8368 7.9047 12.7764 7.90713C12.7645 7.90758 12.7527 7.90785 12.7408 7.90843C12.7346 7.9087 12.7286 7.90879 12.7224 7.90906C12.6256 7.78081 12.5198 7.65898 12.4062 7.54537L8.08452 3.22365C7.43536 2.57454 6.57228 2.21705 5.65422 2.21705C4.71927 2.21705 3.84478 2.58608 3.19189 3.25613C1.88674 4.59565 1.91572 6.77618 3.25644 8.117L7.54555 12.4061C7.6579 12.5185 7.77874 12.6227 7.90551 12.7185L7.90479 12.7267L8.07657 12.8408C8.11084 12.8636 8.14548 12.8857 8.18047 12.9072C8.42318 13.0561 8.68238 13.1732 8.95227 13.2571C8.95465 13.2578 8.95708 13.2587 8.95946 13.2594C8.99135 13.2693 9.02352 13.2783 9.05568 13.2872C9.06282 13.2892 9.06987 13.2915 9.07706 13.2934C9.1068 13.3014 9.13681 13.3087 9.16681 13.3159C9.17652 13.3182 9.18609 13.3209 9.19583 13.3231C9.22355 13.3295 9.25154 13.3352 9.27948 13.3409C9.29161 13.3434 9.3036 13.3462 9.31577 13.3486C9.33949 13.3532 9.36339 13.3571 9.38725 13.3611C9.40382 13.364 9.42026 13.3672 9.43688 13.3699C9.45598 13.3729 9.47529 13.3752 9.49447 13.3779C9.51595 13.3809 9.53737 13.3843 9.55894 13.3868C9.57421 13.3887 9.58957 13.3899 9.60489 13.3916C9.6305 13.3944 9.65606 13.3973 9.68175 13.3995C9.69392 13.4005 9.70614 13.4011 9.71832 13.4019C9.74729 13.4041 9.77622 13.4063 9.80528 13.4077C9.81391 13.4081 9.82258 13.4082 9.8312 13.4085C9.86346 13.4099 9.89571 13.4112 9.92805 13.4116L9.93044 13.4116L10.2849 13.4101L10.2847 13.3986C11.0869 13.3284 11.8308 12.9814 12.4062 12.4059C12.9776 11.8345 13.3221 11.0996 13.3968 10.3053C13.4035 10.3063 13.4102 10.3071 13.4169 10.3081C13.4456 10.3122 13.4742 10.3168 13.5026 10.3218C13.5132 10.3236 13.5238 10.3254 13.5344 10.3273C13.5728 10.3345 13.6109 10.3423 13.6489 10.3511C13.6501 10.3514 13.6513 10.3517 13.6525 10.352C13.6889 10.3605 13.7252 10.37 13.7612 10.3799C13.772 10.3829 13.7828 10.3861 13.7936 10.3892C13.8211 10.3972 13.8485 10.4057 13.8758 10.4145C13.8866 10.418 13.8974 10.4215 13.9081 10.4251C13.9418 10.4365 13.9753 10.4485 14.0086 10.4612C14.0115 10.4624 14.0144 10.4633 14.0173 10.4644C14.0534 10.4784 14.0892 10.4933 14.1248 10.5089C14.1344 10.5131 14.1439 10.5176 14.1535 10.5219C14.1799 10.5338 14.2062 10.5461 14.2323 10.5589C14.2428 10.5641 14.2532 10.5692 14.2636 10.5745C14.2924 10.589 14.3209 10.6041 14.3491 10.6197C14.3539 10.6223 14.3586 10.6247 14.3632 10.6273C14.2315 11.5674 13.795 12.446 13.1206 13.1204C12.396 13.845 11.4356 14.295 10.4164 14.3873C10.2846 14.3993 10.1506 14.4054 10.0182 14.4054C9.93407 14.4054 9.85016 14.4021 9.76652 14.3973C9.37202 14.3749 8.98367 14.3006 8.60903 14.174C7.96728 13.9572 7.39736 13.6028 6.91517 13.1206ZM11.9013 8.01948C10.9555 8.22576 10.0804 8.70008 9.39016 9.39026C8.69999 10.0805 8.22566 10.9556 8.01938 11.9014L3.74573 7.62776C2.6713 6.55333 2.6452 4.80894 3.68747 3.73931C4.20896 3.20407 4.9074 2.90934 5.65413 2.90934C6.38734 2.90934 7.07662 3.19486 7.59506 3.7133L11.9013 8.01948ZM10.2995 12.7002C10.3705 12.0895 10.6415 11.5252 11.0833 11.0835C11.5243 10.6424 12.0897 10.3709 12.7006 10.2997C12.6296 10.9105 12.3586 11.4751 11.9168 11.9169C11.4757 12.358 10.911 12.6285 10.2995 12.7002ZM14.9807 11.0988L19.2544 15.3725C20.3288 16.4469 20.355 18.1913 19.3127 19.261C18.7912 19.7962 18.0927 20.0909 17.346 20.0909C16.6128 20.0909 15.9235 19.8054 15.405 19.2869L11.0988 14.9807C12.0445 14.7745 12.9197 14.3001 13.6099 13.6099C14.3001 12.9197 14.7745 12.0446 14.9807 11.0988ZM20.4907 20.4908C19.6619 21.3196 18.5599 21.776 17.3879 21.776C16.2159 21.776 15.1139 21.3195 14.2851 20.4908L9.87954 16.0852C9.55925 15.765 9.29529 15.406 9.09058 15.0129C9.1139 15.0172 9.1373 15.0209 9.16066 15.0248C9.17674 15.0275 9.19282 15.0304 9.20895 15.033C9.26933 15.0427 9.32988 15.0515 9.39061 15.059C9.39982 15.0602 9.40908 15.061 9.41829 15.0621C9.47057 15.0683 9.523 15.0736 9.57547 15.0781C9.59406 15.0797 9.61266 15.0812 9.63126 15.0826C9.68085 15.0864 9.73049 15.0894 9.78022 15.0917C9.79307 15.0923 9.80587 15.0932 9.81876 15.0937C9.87909 15.096 9.93956 15.0971 10.0001 15.0974C10.0061 15.0974 10.0121 15.0977 10.018 15.0977C10.018 15.0977 10.018 15.0977 10.0181 15.0977C10.0534 15.0977 10.0888 15.0973 10.1243 15.0965C10.1256 15.0965 10.127 15.0965 10.1282 15.0965C10.1739 15.0955 10.2195 15.0937 10.2651 15.0916C10.2693 15.0914 10.2735 15.0913 10.2776 15.0911C10.3744 15.2194 10.4802 15.3411 10.5938 15.4548L14.9155 19.7765C15.5646 20.4256 16.4277 20.7831 17.3458 20.7831C18.2808 20.7831 19.1553 20.4141 19.8081 19.744C21.1133 18.4045 21.0844 16.224 19.7436 14.8832L15.4545 10.594C15.3421 10.4817 15.2213 10.3775 15.0945 10.2816L15.0952 10.2735L14.9235 10.1594C14.8893 10.1367 14.8546 10.1146 14.8197 10.0931C14.8072 10.0855 14.7944 10.0783 14.7818 10.0708C14.7593 10.0573 14.7368 10.0437 14.7139 10.0308C14.6956 10.0205 14.6769 10.0108 14.6584 10.0007C14.641 9.99131 14.6237 9.98156 14.6062 9.97244C14.584 9.96094 14.5616 9.9502 14.5392 9.9392C14.5251 9.93223 14.5109 9.92487 14.4967 9.91808C14.473 9.90685 14.449 9.89639 14.4251 9.8857C14.4119 9.87981 14.3987 9.87348 14.3853 9.86768C14.3606 9.85704 14.3356 9.84711 14.3106 9.83705C14.2978 9.83192 14.2852 9.8264 14.2724 9.82141C14.2476 9.81176 14.2226 9.80291 14.1977 9.79383C14.1844 9.78903 14.1712 9.78381 14.1579 9.77914C14.133 9.77047 14.1079 9.76252 14.0828 9.75448C14.0691 9.75008 14.0556 9.74532 14.0419 9.74105C14.0171 9.73341 13.9921 9.72645 13.9671 9.7194C13.9529 9.71535 13.9388 9.71095 13.9245 9.70713C13.9011 9.7008 13.8774 9.69518 13.8539 9.68939C13.8378 9.68544 13.8219 9.68108 13.8058 9.67735C13.7836 9.67218 13.7613 9.66774 13.739 9.66306C13.7213 9.65934 13.7037 9.65525 13.686 9.65179C13.6651 9.64775 13.644 9.64433 13.6229 9.6406C13.6037 9.63723 13.5844 9.63351 13.565 9.63045C13.5459 9.62744 13.5266 9.62506 13.5075 9.62237C13.486 9.61931 13.4646 9.61603 13.443 9.61343C13.426 9.61136 13.4089 9.60992 13.3919 9.60808C13.368 9.60557 13.3442 9.60278 13.3202 9.60071C13.3052 9.59941 13.2902 9.59874 13.2752 9.59761C13.2491 9.59573 13.2229 9.59366 13.1966 9.59236C13.1834 9.59173 13.1701 9.59159 13.1569 9.59106C13.1301 9.59002 13.1034 9.58885 13.0765 9.5884L13.0713 9.58836C13.0712 9.58836 13.0711 9.58836 13.071 9.58836C13.0709 9.58836 13.0707 9.58836 13.0706 9.58836C13.0552 9.58814 13.0397 9.58805 13.0243 9.58805C12.1059 9.58805 11.2428 9.94531 10.5941 10.594C10.0218 11.1664 9.67721 11.9026 9.60318 12.6945C9.59635 12.6936 9.58953 12.6927 9.5827 12.6917C9.55444 12.6876 9.52637 12.6831 9.49829 12.6782C9.48733 12.6763 9.47628 12.6745 9.46532 12.6724C9.42727 12.6653 9.38936 12.6576 9.35171 12.6489C9.34924 12.6483 9.34677 12.6476 9.3443 12.647C9.30917 12.6388 9.27427 12.6297 9.2395 12.6201C9.22818 12.617 9.21699 12.6136 9.20572 12.6104C9.17872 12.6025 9.1519 12.5943 9.12522 12.5856C9.11399 12.5819 9.1028 12.5784 9.09162 12.5746C9.0586 12.5633 9.02567 12.5516 8.9931 12.5391C8.98964 12.5378 8.98614 12.5367 8.98268 12.5353C8.94674 12.5214 8.91112 12.5065 8.87572 12.4911C8.86584 12.4867 8.856 12.4822 8.84621 12.4777C8.82011 12.4659 8.79415 12.4538 8.76841 12.4412C8.75767 12.4359 8.74689 12.4306 8.7362 12.4252C8.7079 12.411 8.67991 12.3961 8.6521 12.3808C8.64707 12.378 8.64195 12.3754 8.63697 12.3726C8.76872 11.4325 9.20522 10.5539 9.87959 9.87959C10.6043 9.15491 11.5646 8.70493 12.5839 8.61262C12.7157 8.60063 12.8497 8.59456 12.9822 8.59456C13.1024 8.59456 13.2222 8.59941 13.3414 8.60912C13.4056 8.61433 13.4695 8.6212 13.5333 8.62924C13.8248 8.6659 14.1119 8.73144 14.3913 8.82591C15.0331 9.04279 15.603 9.39731 16.0852 9.87954L20.4908 14.2851C22.2016 15.9961 22.2015 18.7799 20.4907 20.4908Z" fill="#FF9800"/>
<path d="M19.4344 3.07536L16.8262 5.68359L17.3155 6.17295L19.9238 3.56471L19.4344 3.07536Z" fill="#FF9800"/>
<path d="M13.5454 0H12.8534V3.68869H13.5454V0Z" fill="#FF9800"/>
<path d="M22.9999 9.45459H19.3112V10.1467H22.9999V9.45459Z" fill="#FF9800"/>
<path d="M5.68326 16.8258L3.07503 19.4341L3.56438 19.9234L6.17262 17.3152L5.68326 16.8258Z" fill="#FF9800"/>
<path d="M3.68869 12.8535H0V13.5456H3.68869V12.8535Z" fill="#FF9800"/>
<path d="M10.1467 19.311H9.45462V22.9997H10.1467V19.311Z" fill="#FF9800"/>
</svg>
