<svg width="26" height="26" viewBox="0 0 26 26" fill="none" xmlns="http://www.w3.org/2000/svg">
<g clip-path="url(#clip0)">
<path d="M24.7605 15.229H24.3714V11.7243C24.3714 11.1695 24.0952 10.6782 23.6735 10.3797V9.90254C23.6735 9.21034 23.1104 8.64722 22.4182 8.64722H22.1276L23.2392 7.01613C23.6118 6.46942 23.4701 5.72146 22.9234 5.34883L15.3808 0.208749C15.116 0.0282214 14.7968 -0.0384036 14.4817 0.021366C14.1668 0.081034 13.894 0.259733 13.7135 0.524608L7.20329 10.0777H5.39167L5.82874 5.65316C5.83367 5.60329 5.86607 5.56008 5.91126 5.54307C6.47438 5.33075 6.96238 4.93425 7.28535 4.42664C7.31079 4.38668 7.35878 4.36382 7.40845 4.36885L10.2499 4.64957C10.4536 4.66932 10.6349 4.52094 10.655 4.31731C10.6751 4.11368 10.5264 3.93234 10.3227 3.91223L7.48127 3.63151C7.15144 3.59921 6.8369 3.7512 6.66019 4.02887C6.42273 4.40211 6.06391 4.6936 5.64989 4.8497C5.33825 4.96721 5.12426 5.24711 5.09135 5.58029L4.64711 10.0777H4.1747L4.86593 3.07982C4.89081 2.82794 5.11562 2.6429 5.3678 2.66814L11.1098 3.23536C11.3135 3.25501 11.4948 3.10673 11.5149 2.9031C11.535 2.69947 11.3863 2.51813 11.1827 2.49802L5.44062 1.93079C4.78229 1.86584 4.19359 2.34852 4.12854 3.00695L3.57136 8.64722H2.62252C1.93037 8.64722 1.3672 9.21034 1.3672 9.90254V10.228C0.800943 10.4888 0.406677 11.0612 0.406677 11.7243V24.3534C0.406677 25.2613 1.14534 26 2.05336 26H22.7247C23.6327 26 24.3714 25.2613 24.3714 24.3534V20.8487H24.7605C25.2197 20.8487 25.5933 20.4751 25.5933 20.0159V16.0618C25.5934 15.6026 25.2197 15.229 24.7605 15.229ZM22.4182 9.38822C22.7018 9.38817 22.9325 9.61892 22.9325 9.90259V10.0913C22.8644 10.0827 22.7952 10.0778 22.7247 10.0778H21.1528L21.6227 9.38822H22.4182ZM14.3258 0.941827C14.3948 0.840519 14.4992 0.772167 14.6196 0.749315C14.6484 0.743882 14.6773 0.74114 14.706 0.74114C14.7973 0.74114 14.8864 0.76846 14.9635 0.820968L22.5061 5.96105C22.7152 6.10359 22.7695 6.38969 22.627 6.59881L20.2562 10.0776H19.6873L20.8496 8.37204C21.0381 8.09543 21.0536 7.74342 20.89 7.4533C20.6726 7.06787 20.5844 6.61404 20.6418 6.17534C20.6844 5.84897 20.5408 5.53037 20.267 5.3438L16.357 2.67921C16.0831 2.49258 15.734 2.47547 15.4459 2.63457C15.0587 2.84836 14.604 2.9323 14.1658 2.87096C13.8408 2.82535 13.5112 2.97211 13.3255 3.24455L8.66889 10.0777H8.09994L14.3258 0.941827ZM14.4889 7.23317C12.8756 7.23317 11.5512 8.49117 11.4433 10.0777H9.56543L13.9376 3.66182C13.9377 3.66182 13.9377 3.66182 13.9377 3.66182C13.9625 3.62531 14.0037 3.60358 14.046 3.60358C14.0517 3.60358 14.0573 3.60398 14.0629 3.60475C14.659 3.68813 15.2773 3.57407 15.804 3.28325C15.8454 3.2603 15.8986 3.2636 15.9396 3.29153L19.8498 5.95617C19.8907 5.9841 19.9132 6.03245 19.9071 6.07937C19.829 6.676 19.949 7.29319 20.2447 7.81736C20.2684 7.85945 20.2655 7.91338 20.2374 7.95477L18.7907 10.0776H17.5347C17.4267 8.49117 16.1024 7.23317 14.4889 7.23317ZM16.7918 10.0777H12.1862C12.2923 8.90016 13.2842 7.97417 14.4889 7.97417C15.6937 7.97412 16.6857 8.90016 16.7918 10.0777ZM2.10815 9.90254C2.10815 9.61887 2.33885 9.38812 2.62252 9.38812H3.49819L3.43009 10.0777H2.10815V9.90254ZM1.14763 11.7243C1.14763 11.2249 1.55393 10.8186 2.05336 10.8186H22.7247C23.2242 10.8186 23.6304 11.2249 23.6304 11.7243V12.7523H1.14763V11.7243ZM23.6304 24.3534C23.6304 24.8527 23.2242 25.259 22.7247 25.259H2.05336C1.55393 25.259 1.14763 24.8527 1.14763 24.3534V23.3253H3.14546C3.35011 23.3253 3.51591 23.1595 3.51591 22.9549C3.51591 22.7503 3.35006 22.5844 3.14546 22.5844H1.14763V13.4933H23.6304V15.229H20.1079H20.1079C18.998 15.229 18.0366 15.8759 17.5803 16.8124C17.5788 16.8155 17.5771 16.8186 17.5755 16.8217C17.5717 16.8297 17.5683 16.838 17.5645 16.846C17.5102 16.9614 17.463 17.0809 17.4245 17.2042C17.4244 17.2046 17.4243 17.2049 17.4242 17.2052C17.3422 17.4687 17.298 17.7487 17.298 18.0389C17.298 19.5882 18.5585 20.8487 20.1078 20.8487H20.1079H23.6304V22.5844H5.51766C5.31301 22.5844 5.14721 22.7503 5.14721 22.9549C5.14721 23.1595 5.31306 23.3253 5.51766 23.3253H23.6304V24.3534ZM24.8524 20.0159C24.8524 20.0666 24.8112 20.1078 24.7605 20.1078H20.108C19.3237 20.1078 18.6398 19.6691 18.2891 19.0242C18.2731 18.9949 18.2579 18.9652 18.2433 18.935C18.2142 18.8748 18.188 18.8129 18.1648 18.7495C18.0834 18.5278 18.039 18.2884 18.039 18.0389C18.039 17.7893 18.0835 17.5499 18.1648 17.3282C18.188 17.2649 18.2143 17.203 18.2433 17.1427C18.2579 17.1126 18.2731 17.0828 18.2891 17.0535C18.6398 16.4086 19.3237 15.9699 20.108 15.9699H24.7605C24.8111 15.9699 24.8524 16.0112 24.8524 16.0618V20.0159Z" fill="#FF9800"/>
<path d="M20.1947 16.5356C19.3659 16.5356 18.6916 17.21 18.6916 18.0388C18.6916 18.8676 19.3659 19.5418 20.1947 19.5418C21.0236 19.5418 21.6978 18.8676 21.6978 18.0388C21.6978 17.21 21.0236 16.5356 20.1947 16.5356ZM20.1947 18.8009C19.7744 18.8009 19.4325 18.459 19.4325 18.0388C19.4325 17.6186 19.7744 17.2766 20.1947 17.2766C20.615 17.2766 20.9569 17.6185 20.9569 18.0388C20.9569 18.459 20.615 18.8009 20.1947 18.8009Z" fill="#FF9800"/>
</g>
<defs>
<clipPath id="clip0">
<rect width="26" height="26" fill="white"/>
</clipPath>
</defs>
</svg>
