<svg width="30" height="30" viewBox="0 0 30 30" fill="none" xmlns="http://www.w3.org/2000/svg">
<path d="M15.6928 9.73674C16.072 9.35742 16.072 8.74025 15.6928 8.36093C15.6928 8.36093 15.6928 8.36087 15.6928 8.36087C15.3135 7.98162 14.6962 7.98149 14.3169 8.36087C13.9375 8.74019 13.9375 9.35749 14.3169 9.7368C14.697 10.1169 15.3125 10.1171 15.6928 9.73674ZM13.2555 7.29953C13.0603 7.49471 12.7439 7.49471 12.5487 7.29953C12.3534 7.10434 12.3534 6.78788 12.5487 6.59269C13.903 5.23832 16.1066 5.23832 17.461 6.59269C17.777 6.90865 17.5487 7.44598 17.1076 7.44598C16.9796 7.44598 16.8517 7.39718 16.7541 7.29959C15.7896 6.33503 14.2201 6.33496 13.2555 7.29953ZM10.5415 5.29242C10.3463 5.09724 10.3463 4.78078 10.5415 4.58559C13.0084 2.1187 17.001 2.11851 19.4681 4.58559C19.784 4.90155 19.5558 5.43888 19.1146 5.43888C18.9867 5.43888 18.8588 5.39008 18.7612 5.29249C16.6851 3.21634 13.3247 3.21616 11.2484 5.29249C11.0532 5.48761 10.7367 5.48761 10.5415 5.29242ZM26.8688 26.7829C24.6553 27.7842 22.0446 27.1648 20.5218 25.2671C20.349 25.0518 20.3835 24.7372 20.5988 24.5644C20.814 24.3916 21.1286 24.4261 21.3014 24.6414C22.5364 26.1804 24.6563 26.6865 26.4568 25.872C28.5119 24.9424 29.5011 22.6354 28.7577 20.5058L26.126 12.9665C25.5615 11.349 24.251 10.0968 22.6206 9.61671C21.8237 9.38204 21.0055 9.18192 20.1889 9.02184C19.918 8.96874 19.7414 8.70613 19.7945 8.43522C19.8476 8.16443 20.1102 7.98768 20.3811 8.04085C21.228 8.2068 22.0765 8.41435 22.903 8.65771C24.8416 9.22859 26.3994 10.7162 27.0698 12.6371L29.7014 20.1763C30.6096 22.7777 29.3834 25.6454 26.8688 26.7829ZM7.47625 16.9733V15.4456H5.94855C5.67252 15.4456 5.44871 15.2218 5.44871 14.9458C5.44871 14.6698 5.67252 14.446 5.94855 14.446H7.47625V12.9183C7.47625 12.6422 7.70005 12.4184 7.97609 12.4184C8.25212 12.4184 8.47592 12.6422 8.47592 12.9183V14.446H10.0036C10.2797 14.446 10.5035 14.6698 10.5035 14.9458C10.5035 15.2218 10.2797 15.4456 10.0036 15.4456H8.47592V16.9733C8.47592 17.2494 8.25212 17.4732 7.97609 17.4732C7.70005 17.4732 7.47625 17.2494 7.47625 16.9733ZM21.8983 17.8787C22.3976 17.8787 22.8037 17.4726 22.8037 16.9734C22.8037 16.4742 22.3976 16.0681 21.8983 16.0681C21.3991 16.0681 20.993 16.4742 20.993 16.9734C20.993 17.4726 21.3991 17.8787 21.8983 17.8787ZM18.9655 14.9459C18.9655 15.4451 19.3716 15.8512 19.8708 15.8512C20.37 15.8512 20.7761 15.4451 20.7761 14.9459C20.7761 14.4467 20.37 14.0405 19.8708 14.0405C19.3716 14.0405 18.9655 14.4467 18.9655 14.9459ZM21.8983 13.8237C22.3976 13.8237 22.8037 13.4176 22.8037 12.9183C22.8037 12.4191 22.3976 12.013 21.8983 12.013C21.3991 12.013 20.993 12.4191 20.993 12.9183C20.993 13.4176 21.3991 13.8237 21.8983 13.8237ZM24.8312 14.9459C24.8312 14.4467 24.4251 14.0405 23.9259 14.0405C23.4267 14.0405 23.0205 14.4467 23.0205 14.9459C23.0205 15.4451 23.4267 15.8512 23.9259 15.8512C24.4251 15.8512 24.8312 15.445 24.8312 14.9459ZM10.6937 18.9333C9.38457 18.9333 8.31948 19.9984 8.31948 21.3076C8.31948 22.1619 8.77314 22.9119 9.45205 23.3302C9.27123 23.6963 8.75908 25.2392 6.90599 25.9613C3.52152 27.2802 0.0160316 24.0464 1.25188 20.5058L3.88334 12.967C4.4486 11.3476 5.76836 10.0926 7.41364 9.60978C8.28973 9.3528 9.18863 9.13793 10.0854 8.97124C10.3568 8.92075 10.5359 8.6599 10.4855 8.38849C10.435 8.11707 10.1741 7.93801 9.90271 7.98843C8.97276 8.16131 8.04069 8.38411 7.13223 8.65059C5.17824 9.2239 3.61087 10.7144 2.93952 12.6376L0.308062 20.1764C-1.19302 24.4768 3.0603 28.5329 7.26894 26.8928C9.53083 26.0113 10.1396 24.1653 10.4034 23.6634C11.832 23.8385 13.0679 22.7186 13.0679 21.3076C13.0679 19.9984 12.0028 18.9333 10.6937 18.9333ZM10.6937 22.6821C9.93577 22.6821 9.31915 22.0655 9.31915 21.3076C9.31915 20.5496 9.93577 19.933 10.6937 19.933C11.4517 19.933 12.0683 20.5496 12.0683 21.3076C12.0683 22.0655 11.4517 22.6821 10.6937 22.6821ZM21.6902 21.3076C21.6902 19.9984 20.6251 18.9333 19.3159 18.9333C18.3391 18.9333 17.4983 19.5265 17.1344 20.3715C16.1465 20.0506 15.4537 20.0885 14.6681 20.0885C14.3921 20.0885 14.1683 20.3123 14.1683 20.5884C14.1683 20.8644 14.3921 21.0882 14.6681 21.0882C15.4162 21.0882 16.0485 21.047 16.9431 21.3632C16.9728 22.6467 18.0254 23.6819 19.3159 23.6819C20.6251 23.6818 21.6902 22.6168 21.6902 21.3076ZM19.3159 22.6821C18.558 22.6821 17.9414 22.0655 17.9414 21.3076C17.9414 20.5496 18.558 19.933 19.3159 19.933C20.0739 19.933 20.6905 20.5496 20.6905 21.3076C20.6905 22.0655 20.0739 22.6821 19.3159 22.6821Z" fill="#FF9800"/>
</svg>
