<svg width="22" height="22" viewBox="0 0 22 22" fill="none" xmlns="http://www.w3.org/2000/svg">
<path d="M11.0482 14.4875C8.37729 14.4875 6.2041 12.3145 6.2041 9.64338V7.25243C6.2041 4.58115 8.37729 2.40796 11.0482 2.40796C13.7195 2.40796 15.8927 4.58115 15.8927 7.25243V9.64338C15.8927 12.3145 13.7195 14.4875 11.0482 14.4875ZM11.0482 3.09546C8.75627 3.09546 6.8916 4.9603 6.8916 7.25243V9.64338C6.8916 11.9352 8.75627 13.8 11.0482 13.8C13.3404 13.8 15.2052 11.9352 15.2052 9.64338V7.25243C15.2052 4.9603 13.3404 3.09546 11.0482 3.09546Z" fill="#5C70CF"/>
<path d="M17.5883 19.5955H4.43813C3.31785 19.5955 2.40674 18.684 2.40674 17.5639V16.0628C2.40674 15.3998 2.74241 14.5112 4.34205 14.0453L6.30882 13.5008C6.49221 13.4508 6.68127 13.5575 6.7318 13.7405C6.78233 13.9236 6.67508 14.1128 6.49204 14.1635L4.52974 14.7067C3.09407 15.125 3.09407 15.8309 3.09407 16.0629V17.5641C3.09407 18.3054 3.697 18.9081 4.43796 18.9081H17.5881C18.3292 18.9081 18.932 18.3052 18.932 17.5641V16.0629C18.932 15.4368 18.448 14.9803 17.4931 14.7058L15.621 14.1824C15.4381 14.1314 15.3312 13.9418 15.3824 13.7588C15.4337 13.5761 15.6227 13.4685 15.8059 13.5204L17.6804 14.0444C19.2833 14.5054 19.6193 15.3966 19.6193 16.0629V17.5641C19.6197 18.684 18.7086 19.5955 17.5883 19.5955Z" fill="#5C70CF"/>
</svg>
