<svg width="16" height="16" viewBox="0 0 16 16" fill="none" xmlns="http://www.w3.org/2000/svg">
<g clip-path="url(#clip0)">
<path d="M14.6688 3.99952C13.9323 3.99952 13.3353 4.59658 13.3353 5.33306C13.3356 5.47286 13.3581 5.61173 13.4019 5.74447L12.3204 6.43191C11.6084 6.8856 10.6695 6.73524 10.1348 6.08186L9.07461 4.78501C9.24333 4.55789 9.33453 4.2825 9.33465 3.99955C9.33465 3.26307 8.73759 2.66602 8.00111 2.66602C7.26463 2.66602 6.66757 3.26307 6.66757 3.99955C6.6677 4.2825 6.7589 4.55789 6.92761 4.78501L5.86745 6.08186C5.33278 6.73486 4.39439 6.8852 3.68248 6.43191L2.60038 5.74447C2.64429 5.61173 2.6668 5.47286 2.66705 5.33306C2.66717 4.59658 2.07024 3.99943 1.33373 3.9993C0.597275 3.99918 0.000125041 4.59614 2.21853e-08 5.33262C-0.000124996 6.02398 0.52814 6.60078 1.21683 6.66126L2.00495 11.3886C2.03167 11.5493 2.17069 11.6672 2.33365 11.6673H13.6687C13.8316 11.6672 13.9706 11.5493 13.9974 11.3886L14.7855 6.66126C15.519 6.59547 16.0604 5.94746 15.9946 5.21392C15.933 4.52729 15.3582 4.0008 14.6688 3.99952Z" fill="#FFC107"/>
<path d="M8.00116 13.0005C11.1312 13.0005 13.6686 12.2542 13.6686 11.3336C13.6686 10.413 11.1312 9.66675 8.00116 9.66675C4.8711 9.66675 2.33368 10.413 2.33368 11.3336C2.33368 12.2542 4.8711 13.0005 8.00116 13.0005Z" fill="#FFA000"/>
<path d="M8.00118 13.3341C5.01875 13.3341 2.00031 12.6473 2.00031 11.3338C2.00031 10.0203 5.01875 9.3335 8.00118 9.3335C10.9836 9.3335 14.0021 10.0203 14.0021 11.3338C14.0021 12.6473 10.9836 13.3341 8.00118 13.3341ZM8.00118 10.0002C4.49933 10.0002 2.66706 10.867 2.66706 11.3338C2.66706 11.8005 4.49933 12.6673 8.00118 12.6673C11.503 12.6673 13.3353 11.8005 13.3353 11.3338C13.3353 10.867 11.503 10.0002 8.00118 10.0002Z" fill="#FFD54F"/>
</g>
<defs>
<clipPath id="clip0">
<rect width="16" height="16" fill="white"/>
</clipPath>
</defs>
</svg>
