<svg fill="none" height="7" viewBox="0 0 11 7" width="11" xmlns="http://www.w3.org/2000/svg"><path d="m10.8242.595992-.3603-.375048c-.1134-.117127-.2643-.1816537-.4256-.1816537-.16111 0-.31216.0645267-.42556.1816537l-4.11028 4.248936-4.11502-4.253651c-.11322-.1171271-.26427-.181561-.425424-.181561-.161156 0-.312295.0644339-.425605.181561l-.36041.372737c-.2346681.24239-.2346681.637224 0 .879614l4.899419 5.08269c.11322.11704.26409.1995.42668.1995h.00188c.16124 0 .31212-.08255.42534-.1995l4.89488-5.06892c.1134-.11703.1756-.2777.1758-.44429 0-.166676-.0624-.325126-.1758-.442068z" fill="#ff9800"/></svg>