<svg width="11" height="11" viewBox="0 0 11 11" fill="none" xmlns="http://www.w3.org/2000/svg">
<path d="M6.85756 5.15231L10.7514 1.2584C11.0048 1.00511 11.0048 0.595589 10.7514 0.342306C10.4981 0.089023 10.0886 0.089023 9.83528 0.342306L5.94135 4.23622L2.04755 0.342306C1.79415 0.089023 1.38474 0.089023 1.13146 0.342306C0.878056 0.595589 0.878056 1.00511 1.13146 1.2584L5.02526 5.15231L1.13146 9.04623C0.878056 9.29951 0.878056 9.70904 1.13146 9.96232C1.25768 10.0887 1.42365 10.1521 1.5895 10.1521C1.75535 10.1521 1.9212 10.0887 2.04755 9.96232L5.94135 6.0684L9.83528 9.96232C9.96162 10.0887 10.1275 10.1521 10.2933 10.1521C10.4592 10.1521 10.625 10.0887 10.7514 9.96232C11.0048 9.70904 11.0048 9.29951 10.7514 9.04623L6.85756 5.15231Z" fill="#8f8f8f"/>
</svg>
