<svg width="10" height="10" viewBox="0 0 10 10" fill="none" xmlns="http://www.w3.org/2000/svg">
<g clip-path="url(#clip0)">
<path d="M6.1888 5.30686L9.69322 1.80233C9.92128 1.57438 9.92128 1.20581 9.69322 0.977851C9.46527 0.749896 9.0967 0.749896 8.86874 0.977851L5.36421 4.48238L1.85979 0.977851C1.63172 0.749896 1.26326 0.749896 1.0353 0.977851C0.807242 1.20581 0.807242 1.57438 1.0353 1.80233L4.53973 5.30686L1.0353 8.81138C0.807242 9.03934 0.807242 9.40791 1.0353 9.63586C1.14891 9.74957 1.29828 9.80669 1.44755 9.80669C1.59681 9.80669 1.74608 9.74957 1.85979 9.63586L5.36421 6.13134L8.86874 9.63586C8.98245 9.74957 9.13172 9.80669 9.28098 9.80669C9.43025 9.80669 9.57951 9.74957 9.69322 9.63586C9.92128 9.40791 9.92128 9.03934 9.69322 8.81138L6.1888 5.30686Z" fill="#FF1744"/>
</g>
<defs>
<clipPath id="clip0">
<rect width="9" height="9" fill="white" transform="translate(0.864258 0.791016)"/>
</clipPath>
</defs>
</svg>
