<svg width="11" height="11" viewBox="0 0 11 11" fill="none" xmlns="http://www.w3.org/2000/svg">
<path d="M6.32437 5.49829L10.4868 1.33569C10.7577 1.06493 10.7577 0.62715 10.4868 0.35639C10.2161 0.0856304 9.77831 0.0856304 9.50755 0.35639L5.34494 4.51899L1.18247 0.35639C0.91158 0.0856304 0.473925 0.0856304 0.203165 0.35639C-0.0677217 0.62715 -0.0677217 1.06493 0.203165 1.33569L4.36564 5.49829L0.203165 9.66089C-0.0677217 9.93165 -0.0677217 10.3694 0.203165 10.6402C0.338101 10.7752 0.515522 10.8431 0.692816 10.8431C0.87011 10.8431 1.0474 10.7752 1.18247 10.6402L5.34494 6.47759L9.50755 10.6402C9.64261 10.7752 9.8199 10.8431 9.9972 10.8431C10.1745 10.8431 10.3518 10.7752 10.4868 10.6402C10.7577 10.3694 10.7577 9.93165 10.4868 9.66089L6.32437 5.49829Z" fill="#8f8f8f"/>
</svg>
