<svg fill="none" height="10" viewBox="0 0 10 10" width="10" xmlns="http://www.w3.org/2000/svg"><path d="m5.48428 4.64791 3.60955-3.60966c.23491-.234793.23491-.614422 0-.849215-.23479-.2347939-.61442-.2347939-.84921 0l-3.60967 3.609665-3.60956-3.609665c-.234899-.2347939-.614418-.2347939-.849212 0-.234904.234793-.234904.614422 0 .849215l3.609552 3.60966-3.609552 3.60966c-.234904.23479-.234904.61442 0 .84922.117012.11712.270865.17595.424608.17595.153744 0 .307487-.05883.424604-.17595l3.60956-3.60966 3.60967 3.60966c.11712.11712.27086.17595.42461.17595.15374 0 .30748-.05883.4246-.17595.23491-.2348.23491-.61443 0-.84922z" fill="#ff9800"/></svg>