<svg width="16" height="18" viewBox="0 0 16 18" fill="none" xmlns="http://www.w3.org/2000/svg">
<g clip-path="url(#clip0)">
<path d="M10.297 3.88037H2.85891C2.16098 3.88037 1.59412 4.46633 1.59412 5.18778V16.2194C1.59412 16.9409 2.16098 17.5268 2.85891 17.5268H10.297C10.9949 17.5268 11.5618 16.9409 11.5618 16.2194V5.18778C11.5585 4.46633 10.9916 3.88037 10.297 3.88037ZM10.6738 16.2161C10.6738 16.4328 10.5034 16.609 10.2937 16.609H2.85564C2.64593 16.609 2.47554 16.4328 2.47554 16.2161V5.18778C2.47554 4.97101 2.64593 4.79488 2.85564 4.79488H10.2937C10.5034 4.79488 10.6738 4.97101 10.6738 5.18778V16.2161Z" fill="#FF9800"/>
<path d="M13.1412 0.987793H5.70315C5.00522 0.987793 4.43835 1.57376 4.43835 2.2952C4.43835 2.54923 4.63495 2.75245 4.88071 2.75245C5.12646 2.75245 5.32306 2.54923 5.32306 2.2952C5.32306 2.07843 5.49344 1.9023 5.70315 1.9023H13.1412C13.3509 1.9023 13.5213 2.07843 13.5213 2.2952V13.3269C13.5213 13.5436 13.3509 13.7198 13.1412 13.7198C12.8955 13.7198 12.6989 13.923 12.6989 14.177C12.6989 14.4311 12.8955 14.6343 13.1412 14.6343C13.8391 14.6343 14.406 14.0483 14.406 13.3269V2.2952C14.406 1.57376 13.8391 0.987793 13.1412 0.987793Z" fill="#FF9800"/>
</g>
<defs>
<clipPath id="clip0">
<rect width="16" height="16.539" fill="white" transform="translate(0 0.987793)"/>
</clipPath>
</defs>
</svg>
