<svg width="50" height="50" viewBox="0 0 50 50" fill="none" xmlns="http://www.w3.org/2000/svg">
<g opacity="0.17" clip-path="url(#clip0)">
<path d="M31.8968 18.1152C31.25 18.1152 30.7258 18.6394 30.7258 19.2862V41.4173C30.7258 42.0637 31.25 42.5883 31.8968 42.5883C32.5435 42.5883 33.0677 42.0637 33.0677 41.4173V19.2862C33.0677 18.6394 32.5435 18.1152 31.8968 18.1152Z" fill="white"/>
<path d="M18.0795 18.1152C17.4327 18.1152 16.9085 18.6394 16.9085 19.2862V41.4173C16.9085 42.0637 17.4327 42.5883 18.0795 42.5883C18.7262 42.5883 19.2504 42.0637 19.2504 41.4173V19.2862C19.2504 18.6394 18.7262 18.1152 18.0795 18.1152Z" fill="white"/>
<path d="M8.00924 14.885V43.7349C8.00924 45.4401 8.63451 47.0415 9.7268 48.1905C10.814 49.3427 12.3271 49.9968 13.9107 49.9995H36.0655C37.6495 49.9968 39.1626 49.3427 40.2494 48.1905C41.3417 47.0415 41.967 45.4401 41.967 43.7349V14.885C44.1383 14.3087 45.5453 12.211 45.2548 9.98298C44.9639 7.75542 43.0661 6.0891 40.8194 6.08864H34.8241V4.62494C34.831 3.39407 34.3443 2.21213 33.473 1.34261C32.6016 0.473537 31.4179 -0.0103973 30.187 -0.000334427H19.7892C18.5584 -0.0103973 17.3746 0.473537 16.5033 1.34261C15.6319 2.21213 15.1452 3.39407 15.1521 4.62494V6.08864H9.15687C6.9101 6.0891 5.01232 7.75542 4.72141 9.98298C4.43096 12.211 5.83794 14.3087 8.00924 14.885ZM36.0655 47.6576H13.9107C11.9086 47.6576 10.3512 45.9378 10.3512 43.7349V14.9879H39.6251V43.7349C39.6251 45.9378 38.0676 47.6576 36.0655 47.6576ZM17.494 4.62494C17.4862 4.01522 17.7259 3.42837 18.1586 2.99795C18.5908 2.56754 19.1791 2.33106 19.7892 2.34158H30.187C30.7972 2.33106 31.3854 2.56754 31.8176 2.99795C32.2503 3.42792 32.49 4.01522 32.4822 4.62494V6.08864H17.494V4.62494ZM9.15687 8.43055H40.8194C41.9835 8.43055 42.9271 9.37418 42.9271 10.5383C42.9271 11.7024 41.9835 12.646 40.8194 12.646H9.15687C7.99277 12.646 7.04915 11.7024 7.04915 10.5383C7.04915 9.37418 7.99277 8.43055 9.15687 8.43055Z" fill="white"/>
<path d="M24.9881 18.1152C24.3413 18.1152 23.8171 18.6394 23.8171 19.2862V41.4173C23.8171 42.0637 24.3413 42.5883 24.9881 42.5883C25.6349 42.5883 26.1591 42.0637 26.1591 41.4173V19.2862C26.1591 18.6394 25.6349 18.1152 24.9881 18.1152Z" fill="white"/>
</g>
<defs>
<clipPath id="clip0">
<rect width="50" height="50" fill="white"/>
</clipPath>
</defs>
</svg>
