<svg width="12" height="14" viewBox="0 0 12 14" fill="none" xmlns="http://www.w3.org/2000/svg">
<g clip-path="url(#clip0)">
<path d="M9.46317 6.34296L8.93597 5.72274C8.79037 5.55156 8.53837 5.53502 8.37197 5.6847L6.79997 7.10872V1.2084C6.79997 0.98016 6.62077 0.794922 6.39997 0.794922H5.59997C5.37917 0.794922 5.19997 0.98016 5.19997 1.2084V7.10872L3.62797 5.6847C3.46237 5.53502 3.21037 5.55156 3.06397 5.72274L2.53677 6.34213C2.39037 6.51414 2.40717 6.77628 2.57357 6.92679L5.73677 9.78888C5.88797 9.92532 6.11277 9.92532 6.26397 9.78888L9.42637 6.92679C9.59277 6.77628 9.60957 6.51414 9.46317 6.34296Z" fill="#FF9800"/>
<path d="M10.4 11.5454H1.60001C1.37921 11.5454 1.20001 11.7306 1.20001 11.9589V12.7858C1.20001 13.0141 1.37921 13.1993 1.60001 13.1993H10.4C10.6208 13.1993 10.8 13.0141 10.8 12.7858V11.9589C10.8 11.7306 10.6208 11.5454 10.4 11.5454Z" fill="#FF9800"/>
</g>
<defs>
<clipPath id="clip0">
<rect width="12" height="12.4043" fill="white" transform="translate(0 0.794922)"/>
</clipPath>
</defs>
</svg>
