<svg fill="none" height="12" viewBox="0 0 12 12" width="12" xmlns="http://www.w3.org/2000/svg"><path d="m.471312 11.863c-.123298 0-.243773-.049-.333187-.1374-.1110629-.1111-.1600057-.2711-.12894586-.4245l.66543286-3.3272c.018824-.09224.06212-.176.128945-.24095l7.320703-7.320702c.54967-.549664 1.44664-.549664 1.99634 0l1.3308 1.330872c.5506.5506.5506 1.44569 0 1.99629l-7.32068 7.32069c-.06494.0659-.14871.1101-.24095.129l-3.327161.6654c-.030119.0056-.061179.0085-.091297.0085zm1.099328-3.56626-.49884 2.49516 2.49514-.4989 7.21996-7.21996c.1836-.18354.1836-.4819 0-.66543l-1.33083-1.33087c-.18353-.183535-.4819-.183535-.66543 0zm2.22784 2.43016h.00941z" fill="#4859a4"/></svg>