<svg width="21" height="21" viewBox="0 0 21 21" fill="none" xmlns="http://www.w3.org/2000/svg">
<g clip-path="url(#clip0)">
<path d="M19.0312 2.625H1.96876C0.883121 2.625 0 3.50812 0 4.59376V16.4063C0 17.4919 0.883121 18.375 1.96876 18.375H19.0312C20.1169 18.375 21 17.4919 21 16.4063V4.59376C21 3.50812 20.1169 2.625 19.0312 2.625ZM19.0312 3.93749C19.1204 3.93749 19.2052 3.95599 19.2828 3.9883L10.5 11.6004L1.71719 3.9883C1.79473 3.95604 1.87956 3.93749 1.96872 3.93749H19.0312ZM19.0312 17.0625H1.96876C1.60668 17.0625 1.31249 16.7683 1.31249 16.4062V5.37497L10.07 12.9648C10.1937 13.0718 10.3468 13.125 10.5 13.125C10.6532 13.125 10.8063 13.0718 10.93 12.9648L19.6875 5.37497V16.4063C19.6875 16.7683 19.3933 17.0625 19.0312 17.0625Z" fill="#FF9800"/>
</g>
<defs>
<clipPath id="clip0">
<rect width="21" height="21" fill="white"/>
</clipPath>
</defs>
</svg>
