<svg fill="none" height="14" viewBox="0 0 16 14" width="16" xmlns="http://www.w3.org/2000/svg"><path d="m.979623 5.77316.000118.00018 1.737369 2.70273.00009.00012c.07856.12182.20387.19995.34341.21897.02478.00408.04571.00407.06162.00406h.0019c.11961 0 .23561-.04506.3257-.13054.00013-.00013.00026-.00025.00039-.00038l2.41383-2.24711.00035-.00032c.19615-.18433.21374-.49637.03577-.70241v-.00001l-.00059-.00067c-.17945-.20405-.48683-.22329-.6887-.03698l-.00044.00041-1.4311 1.33692c.10403-2.86325 2.38657-5.15147 5.17128-5.15147 2.85068 0 5.17788 2.39786 5.17788 5.35566 0 2.95788-2.3244 5.35568-5.17502 5.35568-1.38119 0-2.68122-.5558-3.6571-1.5674l-.0001-.0002c-.19075-.1971-.49878-.1971-.68953 0-.18895.1954-.18895.508 0 .7033 1.16147 1.2006 2.70459 1.8618 4.34673 1.8618 3.39022 0 6.14652-2.8511 6.14652-6.35318 0-3.50214-2.7564-6.353179-6.14938-6.353179-3.29272 0-5.98302 2.687689-6.13934 6.044339l-1.02024-1.58821c-.00002-.00004-.00004-.00007-.00006-.0001-.14699-.22965-.45034-.29436-.67497-.14081-.22287.15235-.281949.46127-.136387.6888z" fill="#5c70cf" stroke="#5c70cf" stroke-width=".2"/></svg>