<svg fill="none" height="29" viewBox="0 0 167 29" width="167" xmlns="http://www.w3.org/2000/svg"><path d="m19.988 28-1.862-5.358h-11.324l-1.862 5.358h-4.75l9.652-26.6h5.244l9.614 26.6zm-11.742-9.462h8.436l-4.218-12.008zm21.6324-6.346c1.0387-2.356 2.9893-3.534 5.852-3.534v4.446c-1.5707-.1013-2.9387.2787-4.104 1.14-1.1653.836-1.748 2.2293-1.748 4.18v9.576h-4.104v-19h4.104zm7.3643 15.808v-27.740001h4.104v27.740001zm10.5791-7.752c.304 1.444 1.0007 2.5587 2.09 3.344 1.0893.76 2.4193 1.14 3.99 1.14 2.1787 0 3.8127-.7853 4.902-2.356l3.382 1.976c-1.8747 2.7613-4.6487 4.142-8.322 4.142-3.0907 0-5.586-.9373-7.486-2.812-1.9-1.9-2.85-4.294-2.85-7.182 0-2.8373.9373-5.206 2.812-7.106 1.8747-1.92533 4.2813-2.888 7.22-2.888 2.7867 0 5.0667.97533 6.84 2.926 1.7987 1.9507 2.698 4.3193 2.698 7.106 0 .4307-.0507 1.0007-.152 1.71zm-.038-3.344h11.172c-.2787-1.5453-.9247-2.7107-1.938-3.496-.988-.7853-2.1533-1.178-3.496-1.178-1.52 0-2.7867.418-3.8 1.254s-1.6593 1.976-1.938 3.42zm34.2012 11.096h-4.902l-7.79-8.778v8.778h-4.104v-26.6h4.104v15.998l7.372-8.398h5.016l-8.36 9.31zm5.1166-22.61c-.5066.50667-1.1146.76-1.824.76-.7093 0-1.33-.25333-1.862-.76-.5066-.532-.76-1.15267-.76-1.862 0-.70934.2534-1.31734.76-1.824.5067-.532 1.1274-.798002 1.862-.798002.7347 0 1.3554.266002 1.862.798002.5067.50666.76 1.11466.76 1.824 0 .70933-.266 1.33-.798 1.862zm-3.876 22.61v-19h4.104v19zm17.3434-19.494c2.178 0 3.939.69667 5.282 2.09 1.342 1.3933 2.014 3.306 2.014 5.738v11.666h-4.104v-11.248c0-1.4187-.38-2.508-1.14-3.268s-1.799-1.14-3.1162-1.14c-1.444 0-2.6094.456-3.496 1.368-.8867.8867-1.33 2.2547-1.33 4.104v10.184h-4.104v-19h4.104v2.432c1.2413-1.95067 3.2046-2.926 5.8902-2.926zm19.163 19.988c-2.787 0-5.156-.9627-7.106-2.888-1.951-1.9253-2.926-4.294-2.926-7.106s.975-5.1807 2.926-7.106c1.95-1.92533 4.319-2.888 7.106-2.888 2.812 0 5.18.96267 7.106 2.888 1.95 1.9253 2.926 4.294 2.926 7.106s-.976 5.1807-2.926 7.106c-1.926 1.9253-4.294 2.888-7.106 2.888zm-4.218-5.7c1.14 1.14 2.546 1.71 4.218 1.71s3.078-.57 4.218-1.71 1.71-2.5713 1.71-4.294-.57-3.154-1.71-4.294-2.546-1.71-4.218-1.71-3.078.57-4.218 1.71-1.71 2.5713-1.71 4.294.57 3.154 1.71 4.294zm19.403 4.826c-.557.5573-1.228.836-2.014.836-.785 0-1.456-.2787-2.014-.836-.557-.5573-.836-1.2287-.836-2.014s.266-1.4567.798-2.014c.558-.5573 1.242-.836 2.052-.836.786 0 1.457.2787 2.014.836.558.5573.836 1.2287.836 2.014s-.278 1.4567-.836 2.014zm12.02-14.668h-4.712v9.12c0 .7853.177 1.3553.532 1.71.355.3293.874.5193 1.558.57.709.0253 1.583.0127 2.622-.038v3.686c-3.141.38-5.396.114-6.764-.798-1.368-.9373-2.052-2.6473-2.052-5.13v-9.12h-3.496v-3.952h3.496v-4.104l4.104-1.216v5.32h4.712zm15.27-3.952h4.484l-7.41 19h-4.75l-7.41-19h4.484l5.32 14.44z" fill="#5378cf"/></svg>