<svg width="8" height="10" viewBox="0 0 8 10" fill="none" xmlns="http://www.w3.org/2000/svg">
<path d="M0.926735 9.85349C0.767016 9.85349 0.607297 9.80996 0.461308 9.72339C0.172533 9.55167 0 9.24465 0 8.90262V1.78675C0 1.44425 0.172533 1.1377 0.461308 0.965976C0.749168 0.794252 1.10751 0.795672 1.39491 0.967395L7.32189 4.5258C7.60884 4.69753 7.78 5.00408 7.78 5.34468C7.78 5.68529 7.60884 5.99137 7.32189 6.16356L1.39491 9.7215C1.24846 9.80949 1.08737 9.85349 0.926735 9.85349ZM0.934973 1.78486L0.915294 8.90215V8.90404L6.86196 5.34516L0.934973 1.78486Z" fill="#FF9800"/>
</svg>
