<svg width="20" height="18" viewBox="0 0 20 18" fill="none" xmlns="http://www.w3.org/2000/svg">
<rect x="0.5" y="0.5" width="19" height="17" rx="4.5" fill="white" stroke="#FF9800"/>
<path d="M14.3194 8.42019H10.5795V4.68017C10.5795 4.36002 10.3196 4.1002 9.99943 4.1002C9.6793 4.1002 9.41946 4.36004 9.41946 4.68017V8.42019H5.67943C5.3593 8.42019 5.09946 8.68003 5.09946 9.00017C5.09946 9.32037 5.35929 9.58022 5.67943 9.58022H9.41946V13.3202C9.41946 13.6404 9.67929 13.9002 9.99943 13.9002C10.3197 13.9002 10.5795 13.6404 10.5795 13.3202V9.58022H14.3194C14.6397 9.58022 14.8995 9.32038 14.8995 9.00017C14.8995 8.68002 14.6396 8.42019 14.3194 8.42019Z" fill="#4859A4" stroke="#4859A4" stroke-width="0.2"/>
</svg>
