<svg width="12" height="14" viewBox="0 0 12 14" fill="none" xmlns="http://www.w3.org/2000/svg">
<g clip-path="url(#clip0)">
<path d="M11.4 6.2297H6.60004V1.26794C6.60004 0.925659 6.3312 0.647766 5.99996 0.647766C5.66884 0.647766 5.4 0.925659 5.4 1.26794V6.2297H0.599963C0.268835 6.2297 0 6.50759 0 6.84988C0 7.19227 0.268835 7.47017 0.599963 7.47017H5.4V12.4318C5.4 12.7742 5.66884 13.0521 5.99996 13.0521C6.3312 13.0521 6.60004 12.7742 6.60004 12.4318V7.47017H11.4C11.7312 7.47017 12 7.19227 12 6.84988C12 6.50759 11.7312 6.2297 11.4 6.2297Z" fill="#5C70CF"/>
</g>
<defs>
<clipPath id="clip0">
<rect width="12" height="12.4043" fill="white" transform="translate(0 0.647766)"/>
</clipPath>
</defs>
</svg>
