<svg fill="none" height="28" viewBox="0 0 23 28" width="23" xmlns="http://www.w3.org/2000/svg"><rect height="21" rx="1.5" stroke="#5c70cf" width="18" x=".5" y=".5"/><g fill="#5c70cf"><path d="m4.75781 6.51562c-.96908 0-1.75781-.78849-1.75781-1.75781 0-.96931.78873-1.75781 1.75781-1.75781.96932 0 1.75781.7885 1.75781 1.75781 0 .96932-.78849 1.75781-1.75781 1.75781zm0-2.34374c-.32295 0-.58593.26298-.58593.58593 0 .32318.26298.58594.58593.58594.32318 0 .58594-.26276.58594-.58594 0-.32295-.26276-.58593-.58594-.58593z"/><path d="m15.8689 5.34375h-7.62427c-.32364 0-.58594-.2623-.58594-.58594s.2623-.58593.58594-.58593h7.62427c.3237 0 .5859.26229.5859.58593s-.2622.58594-.5859.58594z"/><path d="m4.75781 11.2617c-.96908 0-1.75781-.7885-1.75781-1.75779 0-.96932.78873-1.75782 1.75781-1.75782.96932 0 1.75781.7885 1.75781 1.75782 0 .96929-.78849 1.75779-1.75781 1.75779zm0-2.34373c-.32295 0-.58593.26298-.58593.58594 0 .32318.26298.58589.58593.58589.32318 0 .58594-.26271.58594-.58589 0-.32296-.26276-.58594-.58594-.58594z"/><path d="m13.5181 10.0898h-5.27347c-.32364 0-.58594-.26225-.58594-.58589s.2623-.58594.58594-.58594h5.27347c.3236 0 .5859.2623.5859.58594s-.2623.58589-.5859.58589z"/><path d="m4.75781 15.9492c-.96908 0-1.75781-.7885-1.75781-1.7578s.78873-1.7578 1.75781-1.7578c.96932 0 1.75781.7885 1.75781 1.7578s-.78849 1.7578-1.75781 1.7578zm0-2.3437c-.32295 0-.58593.263-.58593.5859 0 .3232.26298.5859.58593.5859.32318 0 .58594-.2627.58594-.5859 0-.3229-.26276-.5859-.58594-.5859z"/><path d="m15.8689 14.7773h-7.62427c-.32364 0-.58594-.2623-.58594-.5859s.2623-.5859.58594-.5859h7.62427c.3237 0 .5859.2623.5859.5859s-.2622.5859-.5859.5859z"/></g><path d="m22.25 22.933c.1547-.0893.25-.2544.25-.433s-.0953-.3437-.25-.433l-6.75-3.8971c-.1547-.0893-.3453-.0893-.5 0s-.25.2544-.25.433v7.7942c0 .1786.0953.3437.25.433s.3453.0893.5 0z" fill="#fefefe" stroke="#5c70cf" stroke-linejoin="round"/></svg>