<svg fill="none" height="20" viewBox="0 0 20 20" width="20" xmlns="http://www.w3.org/2000/svg"><g fill="#ff9800"><path d="m17.1154 1.73047h-14.23079c-1.59059 0-2.88461 1.29402-2.88461 2.88461v10.76922c0 1.5906 1.29402 2.8846 2.88461 2.8846h14.23079c1.5906 0 2.8846-1.294 2.8846-2.8846v-10.76922c0-1.59059-1.294-2.88461-2.8846-2.88461zm1.7308 10.00003h-4.2308c-.9543 0-1.7308-.7764-1.7308-1.73081 0-.95438.7764-1.73078 1.7308-1.73078h4.2308zm0-4.61542h-4.2308c-1.5906 0-2.8846 1.29402-2.8846 2.88461 0 1.59061 1.294 2.88461 2.8846 2.88461h4.2308v2.5c0 .9543-.7764 1.7308-1.7308 1.7308h-14.23079c-.95434 0-1.73078-.7764-1.73078-1.7308v-10.76922c0-.95434.7764-1.73078 1.73078-1.73078h14.23079c.9543 0 1.7308.7764 1.7308 1.73078z"/><path d="m15.3846 9.42334h-.7692c-.3186 0-.5769.25832-.5769.57686 0 .3187.2583.577.5769.577h.7692c.3186 0 .5769-.2584.5769-.577 0-.31858-.2583-.57686-.5769-.57686z"/></g></svg>