<svg width="11" height="12" viewBox="0 0 11 12" fill="none" xmlns="http://www.w3.org/2000/svg">
<g opacity="0.5" clip-path="url(#clip0)">
<path d="M6.50777 5.65329L10.791 1.36998C11.0697 1.09137 11.0697 0.64089 10.791 0.362279C10.5123 0.0836674 10.0619 0.0836674 9.78326 0.362279L5.49994 4.64559L1.21676 0.362279C0.938015 0.0836674 0.487669 0.0836674 0.209057 0.362279C-0.0696856 0.64089 -0.0696856 1.09137 0.209057 1.36998L4.49224 5.65329L0.209057 9.9366C-0.0696856 10.2152 -0.0696856 10.6657 0.209057 10.9443C0.347906 11.0833 0.530472 11.1531 0.712907 11.1531C0.895342 11.1531 1.07778 11.0833 1.21676 10.9443L5.49994 6.66099L9.78326 10.9443C9.92224 11.0833 10.1047 11.1531 10.2871 11.1531C10.4695 11.1531 10.652 11.0833 10.791 10.9443C11.0697 10.6657 11.0697 10.2152 10.791 9.9366L6.50777 5.65329Z" fill="#202020"/>
</g>
<defs>
<clipPath id="clip0">
<rect width="11" height="11" fill="white" transform="translate(0 0.141602)"/>
</clipPath>
</defs>
</svg>
