<svg width="16" height="14" viewBox="0 0 16 14" fill="none" xmlns="http://www.w3.org/2000/svg">
<path d="M0.979623 5.7734L0.979741 5.77359L2.71711 8.47631L2.7172 8.47644C2.79576 8.59826 2.92107 8.67638 3.06061 8.6954C3.08539 8.69948 3.10632 8.69947 3.12223 8.69946L3.12413 8.69946C3.24374 8.69946 3.35974 8.65441 3.44983 8.56892C3.44996 8.5688 3.45009 8.56867 3.45022 8.56854L5.86405 6.32144L5.8644 6.32112C6.06055 6.13679 6.07814 5.82475 5.90017 5.6187L5.90017 5.6187L5.89958 5.61803C5.72013 5.41398 5.41275 5.39474 5.21088 5.58104L5.21044 5.58146L3.77934 6.91838C3.88337 4.05513 6.16591 1.76691 8.95062 1.76691C11.8013 1.76691 14.1285 4.16477 14.1285 7.12257C14.1285 10.0804 11.8041 12.4782 8.95348 12.4782C7.57229 12.4782 6.27226 11.9224 5.29638 10.9108L5.29628 10.9107C5.10553 10.7135 4.7975 10.7135 4.60675 10.9107C4.4178 11.106 4.4178 11.4186 4.60675 11.6139C5.76822 12.8145 7.31134 13.4757 8.95348 13.4757C12.3437 13.4757 15.1 10.6247 15.1 7.12257C15.1 3.62042 12.3436 0.769385 8.95062 0.769385C5.6579 0.769385 2.9676 3.45708 2.81128 6.81372L1.79104 5.22551C1.79102 5.22548 1.791 5.22544 1.79098 5.22541C1.64399 4.99576 1.34064 4.93105 1.11601 5.0846C0.89314 5.23695 0.834061 5.54587 0.979623 5.7734Z" fill="#5C70CF" stroke="#5C70CF" stroke-width="0.2"/>
</svg>
